 <svg
        class="w-6 h-6"
        width="24"
        height="24"
        viewBox="0 0 24 24"
        fill="white"
        xmlns="http://www.w3.org/2000/svg"
      >
        <path
          d="M12.5094 0L3 4.75519C4.35849 4.75519 5.26417 5.6604 5.26415 7.01887V9.28349L7.98113 10.642L17.9434 5.66085V2.71745L12.5094 0ZM9.79245 3.16981L13.4151 4.98113V7.01887L9.79245 8.83019V3.16981ZM15.6792 8.60377L5.26415 13.8113V20.8302L3.45283 21.7358L3.90566 22.4151L5.26415 21.7358L9.79245 24L14.3208 21.7358C16.6485 20.572 20.2075 18.4289 20.2075 15.6226C20.2075 12.1204 18.62 10.1157 15.6792 8.60377ZM11.9934 11.3522C15.6678 13.7591 15.5287 18.1126 13.4151 21.283L9.79245 19.4717V12.4524L11.9934 11.3522Z"
        ></path>
      </svg>