<?xml version="1.0" encoding="UTF-8" standalone="no"?>
<svg
   viewBox="0 0 512 512"
   version="1.1"
   id="svg4"
   sodipodi:docname="circle-radiation-solid.svg"
   inkscape:version="1.2.2 (732a01da63, 2022-12-09)"
   xmlns:inkscape="http://www.inkscape.org/namespaces/inkscape"
   xmlns:sodipodi="http://sodipodi.sourceforge.net/DTD/sodipodi-0.dtd"
   xmlns="http://www.w3.org/2000/svg"
   xmlns:svg="http://www.w3.org/2000/svg">
  <defs
     id="defs8" />
  <sodipodi:namedview
     id="namedview6"
     pagecolor="#505050"
     bordercolor="#eeeeee"
     borderopacity="1"
     inkscape:showpageshadow="0"
     inkscape:pageopacity="0"
     inkscape:pagecheckerboard="0"
     inkscape:deskcolor="#505050"
     showgrid="false"
     inkscape:zoom="1.6191406"
     inkscape:cx="204.42943"
     inkscape:cy="256.30881"
     inkscape:window-width="1920"
     inkscape:window-height="1009"
     inkscape:window-x="-8"
     inkscape:window-y="-2"
     inkscape:window-maximized="1"
     inkscape:current-layer="svg4" />
  <!--!Font Awesome Free 6.7.2 by @fontawesome - https://fontawesome.com License - https://fontawesome.com/license/free Copyright 2025 Fonticons, Inc.-->
  <path
     d="M256 64a192 192 0 1 1 0 384 192 192 0 1 1 0-384zm0 448A256 256 0 1 0 256 0a256 256 0 1 0 0 512zM200 256c0-20.7 11.3-38.8 28-48.5l-36-62.3c-8.8-15.3-28.7-20.8-42-9c-25.6 22.6-43.9 53.3-50.9 88.1C95.7 241.5 110.3 256 128 256l72 0zm28 48.5l-36 62.4c-8.8 15.3-3.6 35.2 13.1 40.8c16 5.4 33.1 8.3 50.9 8.3s34.9-2.9 50.9-8.3c16.7-5.6 21.9-25.5 13.1-40.8l-36-62.4c-8.2 4.8-17.8 7.5-28 7.5s-19.8-2.7-28-7.5zM312 256l72 0c17.7 0 32.3-14.5 28.8-31.8c-7-34.8-25.3-65.5-50.9-88.1c-13.2-11.7-33.1-6.3-42 9l-36 62.3c16.7 9.7 28 27.8 28 48.5zm-56 32a32 32 0 1 0 0-64 32 32 0 1 0 0 64z"
     id="path2"
     style="fill:#ffffff" />
</svg>
