<svg width="324" height="763" viewBox="0 0 324 763" fill="none" xmlns="http://www.w3.org/2000/svg">
<path d="M-0.00091834 762.5L-0.00088501 -1.41625e-05C64.9998 -0.00196727 128.437 51.5407 139.5 90C62 56.5 40.4994 173.5 40.4994 173.5C126.5 150.5 188.499 284 268.999 216.5C253.5 353.5 117 317.998 98.5 379.998C179 406.998 208 500.498 324 456.998C300 644.998 104 552.998 47.4992 626.5C72.999 669 97.4993 688.5 158.5 669C118.499 746 -0.00091834 762.5 -0.00091834 762.5Z" fill="#141417"/>
<path d="M5.34058e-05 575L5.34058e-05 190C37.3681 206.993 64.8026 216.024 70.3841 235.443C31.2821 218.528 20.4342 277.603 20.4342 277.603C63.8252 265.99 70.3841 333.397 111 299.315C103.18 368.489 33.3 341.475 23.966 372.78C39.6068 397.511 62.3113 431.603 103.18 419.99C103.18 472.249 32.5431 476.793 23.966 506.331C36.8317 527.79 49.1931 537.636 79.9705 527.79C59.7886 566.669 5.34058e-05 575 5.34058e-05 575Z" fill="#111114"/>
</svg>
