<?xml version="1.0" encoding="UTF-8" standalone="no"?>
<svg
   viewBox="0 0 512 512"
   version="1.1"
   id="svg4"
   sodipodi:docname="peace-solid.svg"
   inkscape:version="1.2.2 (732a01da63, 2022-12-09)"
   xmlns:inkscape="http://www.inkscape.org/namespaces/inkscape"
   xmlns:sodipodi="http://sodipodi.sourceforge.net/DTD/sodipodi-0.dtd"
   xmlns="http://www.w3.org/2000/svg"
   xmlns:svg="http://www.w3.org/2000/svg">
  <defs
     id="defs8" />
  <sodipodi:namedview
     id="namedview6"
     pagecolor="#505050"
     bordercolor="#eeeeee"
     borderopacity="1"
     inkscape:showpageshadow="0"
     inkscape:pageopacity="0"
     inkscape:pagecheckerboard="0"
     inkscape:deskcolor="#505050"
     showgrid="false"
     inkscape:zoom="1.6191406"
     inkscape:cx="204.42943"
     inkscape:cy="256.30881"
     inkscape:window-width="1920"
     inkscape:window-height="1009"
     inkscape:window-x="-8"
     inkscape:window-y="-2"
     inkscape:window-maximized="1"
     inkscape:current-layer="svg4" />
  <!--!Font Awesome Free 6.7.2 by @fontawesome - https://fontawesome.com License - https://fontawesome.com/license/free Copyright 2025 Fonticons, Inc.-->
  <path
     d="M224 445.3l0-121.8-94.3 77.1c26.1 22.8 58.5 38.7 94.3 44.7zM89.2 351.1L224 240.8l0-174.2C133.2 81.9 64 160.9 64 256c0 34.6 9.2 67.1 25.2 95.1zm293.1 49.5L288 323.5l0 121.8c35.7-6 68.1-21.9 94.3-44.7zm40.6-49.5c16-28 25.2-60.5 25.2-95.1c0-95.1-69.2-174.1-160-189.3l0 174.2L422.8 351.1zM0 256a256 256 0 1 1 512 0A256 256 0 1 1 0 256z"
     id="path2"
     style="fill:#ffffff" />
</svg>
