<?xml version="1.0" encoding="UTF-8" standalone="no"?>
<svg
   viewBox="0 0 512 512"
   version="1.1"
   id="svg4"
   sodipodi:docname="skull-solid.svg"
   inkscape:version="1.2.2 (732a01da63, 2022-12-09)"
   xmlns:inkscape="http://www.inkscape.org/namespaces/inkscape"
   xmlns:sodipodi="http://sodipodi.sourceforge.net/DTD/sodipodi-0.dtd"
   xmlns="http://www.w3.org/2000/svg"
   xmlns:svg="http://www.w3.org/2000/svg">
  <defs
     id="defs8" />
  <sodipodi:namedview
     id="namedview6"
     pagecolor="#505050"
     bordercolor="#eeeeee"
     borderopacity="1"
     inkscape:showpageshadow="0"
     inkscape:pageopacity="0"
     inkscape:pagecheckerboard="0"
     inkscape:deskcolor="#505050"
     showgrid="false"
     inkscape:zoom="1.6191406"
     inkscape:cx="204.42943"
     inkscape:cy="256.30881"
     inkscape:window-width="1920"
     inkscape:window-height="1009"
     inkscape:window-x="-8"
     inkscape:window-y="-2"
     inkscape:window-maximized="1"
     inkscape:current-layer="svg4" />
  <!--!Font Awesome Free 6.7.2 by @fontawesome - https://fontawesome.com License - https://fontawesome.com/license/free Copyright 2025 Fonticons, Inc.-->
  <path
     d="M416 398.9c58.5-41.1 96-104.1 96-174.9C512 100.3 397.4 0 256 0S0 100.3 0 224c0 70.7 37.5 133.8 96 174.9c0 .4 0 .7 0 1.1l0 64c0 26.5 21.5 48 48 48l48 0 0-48c0-8.8 7.2-16 16-16s16 7.2 16 16l0 48 64 0 0-48c0-8.8 7.2-16 16-16s16 7.2 16 16l0 48 48 0c26.5 0 48-21.5 48-48l0-64c0-.4 0-.7 0-1.1zM96 256a64 64 0 1 1 128 0A64 64 0 1 1 96 256zm256-64a64 64 0 1 1 0 128 64 64 0 1 1 0-128z"
     id="path2"
     style="fill:#ffffff" />
</svg>
