<svg width="128" height="128" viewBox="0 0 128 128" fill="none" xmlns="http://www.w3.org/2000/svg">
<path d="M30.9802 24.9997C30.7002 24.8597 32.6702 22.3997 33.3702 21.1997C34.0702 19.9997 34.6402 18.0997 36.1202 18.2397C37.6002 18.3797 37.7402 20.9897 37.6702 22.1097C37.5302 24.3597 36.2602 26.8997 36.2602 26.8997L30.9802 24.9997Z" fill="#FFBD16"/>
<path d="M90.18 73.9199L48.27 81.6399C48.27 81.6399 48.72 84.3399 49.49 87.3699C50.26 90.3999 53.15 99.0499 53.01 102.64C52.87 106.23 50.12 113.48 51.11 115.03C52.1 116.58 55.69 116.51 57.8 116.02C59.91 115.53 62.12 114 62.4 113.09C62.68 112.18 62.02 104.06 62.09 102.16C62.16 100.26 62.58 96.5999 63.29 93.7799C63.99 90.9599 64.42 85.8299 64.42 85.8299L74.63 80.6199C74.63 80.6199 81.74 86.0399 83.71 88.9299C85.68 91.8199 87.16 98.0099 87.09 100.54C87.02 103.07 85.35 110.33 86.43 111.64C87.77 113.26 90.99 113.47 93.09 113.28C95.67 113.05 97.92 111.64 97.92 111.64V81.3099L90.18 73.9199Z" fill="#ADADB8"/>
<path d="M117.07 81.5904C115.38 81.5204 113.84 87.5904 114.32 90.2504C115.02 94.1204 117.84 95.4605 118.75 96.7305C119.67 98.0005 120.2 99.5704 121.28 100.04C122.41 100.53 123.72 95.1204 123.6 90.9604C123.47 85.8104 119.35 81.6904 117.07 81.5904Z" fill="#4D4D4D"/>
<path d="M84.2701 81.87L78.8501 86.94C78.8501 86.94 81.3401 89.74 83.3501 91.16C85.7401 92.85 88.0001 93.13 88.0001 93.13C88.0001 93.13 87.5101 97.14 89.9001 97.49C92.1301 97.82 91.9401 93.41 92.2901 93.34C92.6401 93.27 93.3501 96.58 95.2501 96.51C97.1501 96.44 100.67 89.05 100.67 89.05L96.3001 78L84.2701 81.87Z" fill="#FEA8A7"/>
<path d="M44.1699 29.0803C44.3099 28.7303 42.7599 27.3903 41.2799 26.4103C39.7999 25.4203 36.9199 25.0703 36.9199 25.0703L24.0399 31.3303L16.2299 38.8903C16.2299 38.8903 12.9499 41.1903 11.5399 42.1703C10.1299 43.1603 7.80994 44.7303 6.60994 45.5003C5.40994 46.2703 4.42994 46.7003 4.21994 47.6103C4.00994 48.5203 8.55994 55.8903 8.55994 55.8903L10.9499 57.6503L16.6499 57.1603C16.6499 57.1603 24.2499 60.6803 27.7699 61.9503C31.2899 63.2203 39.3099 65.8203 39.3099 65.8203C39.3099 65.8203 40.7899 69.8303 41.7699 72.0803C42.7599 74.3303 44.7499 77.4503 44.7499 77.4503L65.4199 87.4203C65.4199 87.4203 67.3899 95.2303 67.7399 97.2703C68.0899 99.3103 68.5099 105.01 68.3699 107.76C68.2299 110.51 67.6499 115.03 67.7399 116.21C67.8299 117.52 69.0199 119.16 70.7699 119.45C73.6599 119.92 77.1099 118.89 78.5799 116.85C80.0499 114.81 78.2299 109.18 78.0199 106.85C77.8099 104.53 76.8099 99.2203 77.5299 97.4903C78.7299 94.6003 79.9199 90.9403 80.1299 89.6803C80.3399 88.4103 80.8299 86.3703 80.8299 86.3703C80.8299 86.3703 84.6299 86.4403 87.7299 86.0203C90.8299 85.6003 93.9199 84.9603 93.9199 84.9603C93.9199 84.9603 94.9099 89.1103 95.0499 91.6503C95.1899 94.1803 95.6799 99.1803 95.6099 103.12C95.5399 107.06 94.1999 111.85 94.6199 112.83C95.0399 113.82 95.8899 115.55 99.8299 115.01C104 114.44 104.99 112.26 105.41 111.28C105.83 110.3 106.37 101.57 106.94 99.3103C107.5 97.0603 109.33 88.1903 110.32 85.1603C111.31 82.1303 114.97 70.8003 114.97 70.8003C114.97 70.8003 114.97 75.5203 115.25 77.4203C115.53 79.3203 116.09 83.4003 117.22 83.2603C118.35 83.1203 117.99 79.7403 118.06 77.4903C118.13 75.2403 117.99 72.0703 118.83 69.4003C119.67 66.7303 120.46 62.5003 120.52 62.0103C121.04 58.0203 120.45 53.3503 120.38 52.5803C120.31 51.8103 114.68 48.1503 114.68 48.1503C114.68 48.1503 114.82 45.2203 114.47 44.7903C114.12 44.3703 108.98 40.4703 107.38 40.1403C104.71 39.5903 102.01 40.5403 102.01 40.5403L87.0999 51.6003L59.9299 40.4803C59.9299 40.4803 57.2599 40.4103 56.4099 40.4103C55.5699 40.4103 51.5499 38.7203 51.5499 38.7203L46.8999 34.4303L44.1699 29.0803Z" fill="#DFDFDF"/>
<path d="M107.14 60.8295C106.56 55.5795 108.76 50.6895 110.1 48.5795C111.44 46.4695 112.94 44.5195 113.31 43.9595C113.66 43.4395 120.54 49.5395 120.35 52.4095C120.32 52.9095 119.41 58.8895 118.47 61.6495C117.71 63.8995 115.82 69.4595 115.19 69.6695C114.56 69.8795 107.85 67.1595 107.14 60.8295ZM106.93 67.7895C105.05 67.7395 103.62 69.6195 101.93 71.5195C100.24 73.4195 98.8999 74.8995 99.1799 76.7995C99.4599 78.6995 101.57 81.7995 105.44 81.3795C109.31 80.9595 110.37 77.0195 110.44 74.6195C110.52 72.2295 109.75 67.8595 106.93 67.7895ZM81.8299 40.1495C72.1899 40.2895 60.8299 40.2395 59.6299 40.5295C58.9299 40.6895 61.3899 49.1395 65.5399 53.5095C69.6899 57.8795 82.6099 73.4495 92.1499 69.3495C98.6999 66.5295 97.4299 57.3095 98.4899 52.5295C99.5499 47.7395 104.36 40.2595 104.36 40.2595C104.36 40.2595 89.6399 40.0395 81.8299 40.1495ZM60.3299 25.4195C61.1699 26.5695 56.6699 33.0895 55.1899 34.7795C53.7099 36.4695 50.7599 38.4395 50.7599 38.4395C50.7599 38.4395 53.2499 39.3795 53.6699 39.7295C54.0899 40.0795 57.4899 46.3195 57.5199 48.0795C57.5699 51.1295 51.0399 58.9195 48.0199 58.8495C44.9899 58.7795 37.6699 53.9195 36.6899 52.5895C35.6999 51.2495 34.4399 39.5695 35.9199 35.7695C37.3999 31.9695 40.2799 29.0095 41.1299 28.8695C41.9799 28.7295 43.0299 29.0095 43.0299 29.0095C43.0299 29.0095 46.4099 26.5495 51.4799 25.6295C56.5499 24.7095 59.7699 24.6495 60.3299 25.4195Z" fill="#4D4D4D"/>
<path d="M44.9901 36.8203C44.5001 36.2603 45.7001 32.2303 49.0001 29.8503C52.5201 27.3203 56.2501 27.3903 56.8801 27.8803C57.5801 28.4203 55.4301 32.4003 52.7301 34.4303C49.3501 36.9603 45.4801 37.3903 44.9901 36.8203Z" fill="#FFD1B3"/>
<path d="M16.4098 44.7795C16.4098 44.7795 20.6298 36.3295 23.9398 33.9395C27.2498 31.5495 30.6698 30.6595 33.5798 29.6495C38.0098 28.0995 39.6998 24.7895 39.6998 24.7895C39.6998 24.7895 33.7898 23.4495 28.8598 24.9295C25.2298 26.0195 21.5398 28.3795 19.9898 30.2795C18.4398 32.1795 17.4298 35.5995 16.3298 37.3895C14.9898 39.5695 11.7798 41.9695 11.7798 41.9695C11.7798 41.9695 12.8798 42.1995 14.1698 43.0495C14.7198 43.3995 16.4098 44.7795 16.4098 44.7795Z" fill="#4D4D4D"/>
<path d="M37.5299 26.4101C37.6899 26.9801 38.1399 28.2301 39.1499 28.9401C40.3399 29.7901 42.1899 30.0301 43.3699 29.5701C45.5499 28.7301 46.2999 23.8701 46.4699 22.3901C46.7499 19.8601 46.3299 17.7401 44.9899 17.9601C44.0799 18.1001 41.3999 21.4501 40.6299 22.0401C39.4299 22.9601 36.9599 24.3601 37.5299 26.4101Z" fill="#FFBD16"/>
<path d="M26.5 37.9496C27.02 37.7196 27.77 36.0696 29.27 36.2096C30.77 36.3496 31.95 38.1096 31.48 40.0996C31.01 42.0696 29.78 42.6696 28.43 42.3996C27.26 42.1696 26.69 40.8496 26.46 40.6596C26.23 40.4696 23.88 40.2396 23.93 39.2496C23.97 38.2796 26.5 37.9496 26.5 37.9496Z" fill="#1B1B1B"/>
<path d="M7.31016 55.5903C6.89016 56.1103 7.74016 57.7703 9.56016 58.4103C11.7902 59.1803 13.2902 59.1403 14.9302 58.7203C16.2502 58.3803 17.4902 57.5703 17.4902 57.5703C17.4902 57.5703 20.1302 56.5603 18.9702 55.2003C17.3702 53.3203 15.3802 56.3003 15.3802 56.3003C15.3802 56.3003 14.0402 57.1203 11.6002 56.7903C9.70016 56.5303 8.43016 54.8403 8.43016 54.8403L7.31016 55.5903Z" fill="#4D4D4D"/>
<path d="M12.9798 50.2004C13.1698 49.2304 13.4698 48.5404 10.8698 47.7604C8.19981 46.9604 5.65981 46.5404 4.57981 47.0604C4.02981 47.3204 3.35981 50.1604 4.85981 53.0204C5.70981 54.6404 7.34981 57.4304 8.13981 57.1004C8.92981 56.7704 10.3698 54.3504 10.8098 53.7704C11.4398 52.9704 12.6598 51.8404 12.9798 50.2004Z" fill="#FCA4A7"/>
<path d="M11.3398 49.7305C11.2998 51.0905 9.22983 52.5005 6.78983 51.7905C4.34983 51.0805 3.92983 49.3005 4.06983 48.2705C4.20983 47.2405 6.08983 48.2205 7.30983 48.4605C8.52983 48.7005 11.3898 48.2705 11.3398 49.7305Z" fill="#FFD3AF"/>
<path d="M70.1898 69.53C67.9898 70.03 65.8698 73.8 66.1098 76.94C66.3198 79.71 68.6198 83.12 72.2998 83.51C75.8198 83.89 78.3998 80.65 78.3098 77.74C78.2398 75.58 75.8498 74.42 74.5098 72.81C72.3498 70.23 71.6398 69.2 70.1898 69.53ZM45.5998 68.97C44.4698 69.44 44.0998 71.36 43.9098 72.54C43.7198 73.72 43.9098 75.97 44.4698 77.14C45.0298 78.31 48.1798 83.38 49.0698 84.09C49.9598 84.79 53.9998 86.53 58.5498 87.19C63.0998 87.85 65.4998 87.61 65.4998 87.61C65.4998 87.61 64.2298 85.03 63.2498 82.64C62.2598 80.25 60.8598 76.16 58.9798 73.96C57.0998 71.76 47.6398 68.12 45.5998 68.97Z" fill="#4D4D4D"/>
</svg>
