<svg width="128" height="128" viewBox="0 0 128 128" fill="none" xmlns="http://www.w3.org/2000/svg">
<path d="M94.2399 83.4576C94.2399 83.4576 115.5 82.0356 119.944 73.8696C124.412 65.7196 130.136 45.4476 109.06 43.4936C87.9979 41.5436 90.4359 54.3756 93.5319 57.5536C96.6499 60.7156 108.05 60.6916 111.104 59.6216C114.158 58.5476 119.03 62.4096 116.196 68.7356C113.37 75.0716 94.2399 83.4656 94.2399 83.4656" fill="#926C48"/>
<path d="M25.4418 17.6785C23.0018 19.3045 21.4798 22.2925 20.4218 24.8585C17.5878 31.7025 22.1118 33.1545 22.1658 33.1505C25.2058 34.4005 28.8358 36.0945 30.5018 20.1845C30.7538 17.6465 27.8098 16.0985 25.4418 17.6785Z" fill="#A87C51"/>
<path d="M64.8982 69.6838C63.8832 69.6192 62.867 69.5732 61.8502 69.5458C57.7622 69.4598 54.6362 70.5438 53.6802 72.3878C52.7562 74.1758 53.6322 77.0258 56.1502 80.4278C59.8362 85.4078 62.1702 86.1238 63.5942 86.2098C64.9602 86.3058 66.3962 85.8458 68.0542 85.3198C69.1372 84.9539 70.2379 84.6429 71.3522 84.3878C77.0042 83.1898 81.6082 84.6598 84.5362 88.5098C89.8722 95.5318 88.1442 108.094 87.2442 112.866C88.2402 114.172 91.5462 117.002 94.6902 117.212C95.5662 117.268 98.2662 117.454 100.578 112.71C101.076 110.242 102.132 95.2898 93.7582 83.7018C87.6722 75.2878 77.9682 70.5738 64.8982 69.6838Z" fill="#926C48"/>
<path d="M90.4998 69.2183C89.4457 69.1478 88.3901 69.1004 87.3338 69.0763C83.0958 68.9863 79.8418 70.1183 78.8398 72.0323C77.8918 73.8923 78.7998 76.8563 81.4138 80.3803C85.2418 85.5623 87.6738 86.2943 89.1418 86.4003C90.5698 86.5003 92.0618 86.0283 93.7898 85.4723C94.9131 85.0899 96.0569 84.7707 97.2158 84.5163C103.09 83.2663 107.874 84.7863 110.922 88.7843C116.47 96.0863 114.68 109.148 113.732 114.092C114.774 115.466 118.198 118.398 121.468 118.616C122.382 118.674 125.184 118.872 127.586 113.938C128.116 111.372 129.204 95.8383 120.496 83.7983C114.182 75.0523 104.094 70.1503 90.4998 69.2343" fill="#A87C51"/>
<path d="M49.1962 84.4202C45.4322 79.2062 40.2522 75.4182 33.7642 73.0762C33.7242 75.6302 33.9762 78.1322 34.9242 80.3982C35.9422 82.8262 39.4482 88.5382 39.9762 89.2282C45.3122 96.2482 43.5922 108.818 42.6842 113.586C43.6862 114.892 46.9862 117.718 50.1282 117.932C51.0122 117.992 53.7122 118.172 56.0102 113.428C56.5302 110.962 57.5722 96.0082 49.1962 84.4202Z" fill="#926C48"/>
<path d="M45.9516 69.9478C44.8973 69.8796 43.8417 69.8323 42.7856 69.8058C38.5376 69.7158 35.2776 70.8398 34.2916 72.7598C33.3356 74.6178 34.2356 77.5798 36.8576 81.1058C40.7016 86.2898 43.1176 87.0238 44.5936 87.1258C46.0136 87.2178 47.5076 86.7498 49.2356 86.1978C50.3096 85.8518 51.4296 85.4918 52.6536 85.2358C58.5276 83.9858 63.3196 85.5058 66.3656 89.5118C71.9076 96.8038 70.1236 109.872 69.1836 114.82C70.2176 116.186 73.6516 119.116 76.9116 119.34C77.8356 119.402 80.6276 119.592 83.0296 114.662C83.5596 112.096 84.6416 96.5618 75.9416 84.5218C69.6176 75.7698 59.5296 70.8758 45.9516 69.9598" fill="#A87C51"/>
<path d="M59.1899 60.8184C42.8639 59.3944 30.9299 58.1264 29.8879 70.0304C28.8539 81.9384 41.2399 92.7484 57.5559 94.1704C66.8799 94.9864 75.4679 92.5464 81.3079 88.0824C82.0499 88.1584 82.7839 88.2524 83.5419 88.2404C92.9599 88.0904 100.484 81.3924 100.356 73.2664C100.222 65.5864 69.1519 61.6824 59.1899 60.8144" fill="#A87C51"/>
<path d="M92.6599 65.8323C84.4019 64.5843 78.3479 63.5043 77.8739 73.1823C77.4079 82.8763 99.5759 89.5043 105.148 88.2863C109.814 87.2643 113.69 82.7883 113.596 76.1663C113.492 69.9123 97.7199 66.5763 92.6599 65.8243" fill="#A87C51"/>
<path d="M95.7218 61.704C71.4398 61.574 81.6218 73.008 81.1498 82.69C80.6778 92.388 102.63 85.378 108.202 84.162C112.86 83.134 116.752 78.662 116.634 72.042C116.54 65.786 100.838 61.72 95.7218 61.698M69.0798 72.24C70.0518 64.366 37.5838 25.88 31.2998 27.718C24.8198 29.628 16.0958 30.926 16.4738 36.572C17.8798 57.722 39.2098 88.46 44.6338 87.792C52.2598 86.832 68.0858 80.128 69.0798 72.24Z" fill="#A87C51"/>
<path d="M37.4501 30.6641C36.5901 30.8221 35.7221 30.9681 34.8541 31.1181C35.0601 31.7461 35.3441 32.3341 35.5561 32.9461C36.8981 32.5481 38.4061 32.6621 39.7721 33.7981C48.5661 41.1401 59.5161 56.3761 61.0941 67.9581C61.8681 73.6181 60.4161 78.9941 57.5501 83.5121C63.3441 80.6501 68.5301 76.6361 69.0821 72.2361C69.8721 65.8801 48.8821 39.6081 37.4501 30.6641ZM43.9701 79.3541C53.0481 76.0941 41.3961 64.1381 39.0201 60.8661C33.2801 52.9481 28.7721 42.6081 25.8201 32.9061C22.5541 33.7261 19.3801 34.8201 16.4741 36.5281V36.5681C17.4141 50.8521 27.4461 69.4781 35.5461 79.8821C38.2781 80.4521 41.1281 80.3721 43.9701 79.3541Z" fill="#926C48"/>
<path d="M7.36599 51.3058C14.076 54.1118 21.866 52.9738 28.198 51.4818C45.084 47.4958 40.9 35.7698 40.828 35.6858C38.532 27.3858 36.226 21.7578 4.40599 41.4698C-0.65601 44.6038 0.88399 48.5898 7.36599 51.3058Z" fill="#A87C51"/>
<path d="M37.9558 16.868C34.6078 19.098 32.5318 23.184 31.0798 26.688C27.2118 36.05 33.3918 38.036 33.4558 38.028C37.6238 39.744 42.5978 42.068 44.8718 20.298C45.2338 16.836 41.1918 14.712 37.9558 16.868Z" fill="#A87C51"/>
<path d="M30.78 35.4155C30.812 37.4955 29.454 39.1975 27.732 39.2255C26.012 39.2575 24.606 37.5955 24.566 35.5195C24.534 33.4355 25.892 31.7295 27.612 31.7015C29.326 31.6735 30.748 33.3335 30.78 35.4155Z" fill="#25333A"/>
<path d="M57.3499 53.0281C54.7359 63.8781 38.6179 69.8541 29.2499 70.7301C23.7479 71.2421 26.4079 75.6401 29.8339 75.3201C41.3039 74.2501 60.9999 71.5621 64.1739 58.3801C64.6159 56.5461 57.9699 50.4961 57.3619 53.0281" fill="#BE202E"/>
<path d="M45.7079 77.124C45.7079 80.052 43.7499 82.424 41.3419 82.424C38.9259 82.424 36.9619 80.052 36.9619 77.124C36.9619 74.204 38.9279 71.832 41.3419 71.832C43.7499 71.832 45.7079 74.204 45.7079 77.124Z" fill="#F7EC35"/>
<path d="M0 42.5339C0 38.3479 3.56 38.4239 8.422 38.4239C13.286 38.4239 17.594 38.3479 17.594 42.5339C17.594 46.7259 13.654 50.1219 8.792 50.1219C3.94 50.1219 0 46.7259 0 42.5339Z" fill="#25333A"/>
</svg>
