<svg width="128" height="128" viewBox="0 0 128 128" fill="none" xmlns="http://www.w3.org/2000/svg">
<path d="M28.9398 63.1505C28.9398 63.1505 26.5498 70.0505 27.9498 77.3705C29.3598 84.6905 31.3298 91.4504 31.3298 91.4504C31.3298 91.4504 31.7498 105.81 31.3298 107.36C30.9098 108.91 27.6698 110.88 27.6698 113.7C27.6698 116.52 28.6998 120.08 33.9098 120.93C39.1198 121.78 43.3398 120.04 45.0798 117.93C47.5898 114.88 47.0998 112.72 47.0998 110.47C47.0998 108.22 47.2398 95.2705 47.7998 93.2905C48.3598 91.3204 49.2098 90.1905 50.7598 90.3305C52.3098 90.4705 53.9998 92.8605 54.1398 97.3705C54.2798 101.87 54.4198 109.76 54.2798 111.31C54.1398 112.86 52.7298 118.07 53.8598 120.18C54.9898 122.29 60.0998 124.34 64.0398 124.12C69.1998 123.84 72.2998 120.6 72.5798 118.07C72.8598 115.54 71.1698 109.76 71.1698 108.07C71.1698 106.38 73.1398 94.8404 73.6998 94.1304C74.2598 93.4305 75.9798 93.5804 79.7498 91.8804C83.1798 90.3304 85.0098 88.7804 85.0098 88.7804C85.0098 88.7804 85.0998 98.7804 84.9598 99.9005C84.8198 101.03 81.4398 104.55 81.9998 107.22C82.5598 109.89 85.8598 111.45 88.7998 111.72C93.7698 112.19 98.6098 108.34 99.8698 104.96C101.14 101.58 100.57 97.3605 100.29 95.1105C100.01 92.8605 100.01 84.9705 100.29 82.8605C100.57 80.7505 101.03 79.4705 101.21 78.3605C101.49 76.5304 101.42 74.4904 101.42 74.4904C101.42 74.4904 106.28 74.4904 109.16 72.5904C112.04 70.6904 115.07 67.3804 116.41 63.3004C117.72 59.3104 117.4 58.0905 116.27 57.9505C115.14 57.8105 110.08 64.9104 105.78 65.1304C98.9498 65.4804 99.6298 58.1604 94.4198 53.7304C88.5498 48.7304 79.3998 48.1004 79.3998 48.1004C79.3998 48.1004 80.9798 42.1904 80.9998 37.8204C81.0698 18.7404 71.7798 12.2705 71.7798 12.2705C71.7798 12.2705 60.6098 3.95045 47.9398 4.51045C35.2698 5.07045 25.9798 15.1405 25.9798 15.1405L19.0098 45.9005C19.0098 45.9005 20.7698 51.8105 23.5898 56.1105C26.5498 60.6105 28.9398 63.1505 28.9398 63.1505Z" fill="#FFD2B1"/>
<path d="M20.14 8.32019C9.79004 8.53019 4.32004 17.3502 4.16004 22.7502C4.07004 25.9202 2.82004 48.9602 15.56 49.4302C20.67 49.6202 24.47 43.6902 26.4 36.9702C28.83 28.5002 28.72 20.0102 29 17.7502C29.45 14.1402 30.2 11.4902 30.2 11.4902C30.2 11.4902 28.94 8.14019 20.14 8.32019ZM75.54 4.80019C86.8 5.22019 90.6401 10.2102 91.73 13.1102C92.93 16.2802 93.98 27.5902 92.22 35.1402C90.79 41.3002 88.63 44.4302 83.56 44.2202C78.92 44.0302 76.57 37.3402 73.07 28.2402C69.69 19.4402 67.1 11.5602 66.66 10.4302C66.1 8.95019 64.9 8.32019 64.9 8.32019C64.9 8.32019 67.15 4.48019 75.54 4.80019Z" fill="#865B52"/>
<path d="M62.6602 27.67C57.1002 28.02 54.4402 34.2 55.6202 40.41C56.8902 47.1 61.2802 50.27 66.8102 49.56C72.8602 48.79 74.6902 41.89 73.9202 36.68C73.2102 31.94 70.5302 27.17 62.6602 27.67Z" fill="#D27856"/>
<path d="M69.1998 39.0003C69.1998 41.9203 67.5799 44.3603 65.0099 44.2903C61.5199 44.1903 60.6099 41.1003 60.6799 38.5003C60.7599 35.4603 62.5799 34.0203 65.1799 34.0903C67.4999 34.1403 69.1998 36.0803 69.1998 39.0003ZM39.8499 40.6103C39.8499 43.6503 38.2299 46.1903 35.6599 46.1103C32.1699 46.0103 31.2599 42.7903 31.3299 40.0803C31.4099 36.9103 33.5799 35.5603 35.6199 35.7103C37.9299 35.8803 39.8499 37.5703 39.8499 40.6103ZM53.2199 57.5903C53.2199 57.5903 59.3399 56.9603 59.0599 52.5203C58.7799 48.0903 54.6299 47.8003 51.3899 47.8703C48.1499 47.9403 43.5099 49.6303 43.9999 53.3603C44.4899 57.0903 49.7699 57.5803 49.7699 57.5803C49.7699 57.5803 49.7598 60.3403 47.9398 60.5403C45.9698 60.7503 43.1499 57.7203 42.3799 56.9503C41.6099 56.1803 40.4099 56.4603 39.9899 57.0903C39.5699 57.7203 39.8499 59.1303 41.0499 60.3303C42.2499 61.5303 45.0599 64.5503 47.8799 64.2703C50.6999 63.9903 50.7698 62.5103 51.8899 62.4403C53.0198 62.3703 52.9499 64.0603 55.7598 63.9903C57.7398 63.9403 61.7299 60.4603 62.4499 59.8403C64.0699 58.4303 64.4899 57.0203 63.7899 56.1103C63.0899 55.2003 61.1199 56.5303 60.0599 57.3103C58.9999 58.0803 57.2899 59.9003 55.6299 60.2003C52.8699 60.6903 53.2199 57.5903 53.2199 57.5903Z" fill="#060401"/>
<path d="M78.2099 50.99C78.2099 50.99 76.8799 53.91 75.7699 56.25C74.4299 59.07 72.5099 61.53 72.5099 61.53C72.5099 61.53 74.6799 76.37 87.5899 75.09C92.2099 74.63 95.7099 71.01 96.0399 67.17C96.5999 60.69 94.1399 57.66 90.3199 54.7C84.1299 49.92 78.2099 50.99 78.2099 50.99ZM69.2699 74.2C66.9799 76.3 68.2099 80.25 71.2399 80.68C74.2699 81.1 75.8999 78.58 75.6699 76.67C75.3299 73.71 71.8799 71.81 69.2699 74.2ZM39.3599 70.3C39.3599 70.3 37.3399 75.84 41.6099 82.78C43.4299 85.73 47.4799 87.39 50.3399 87.28C53.3599 87.17 56.0899 86.12 58.4299 83.2C62.1599 78.55 61.0999 70.81 61.0999 70.81C61.0999 70.81 55.1899 73.24 49.7699 73.06C43.9999 72.88 39.3599 70.3 39.3599 70.3ZM31.9899 112.7C30.5199 112.25 29.9299 114.53 29.8299 115.98C29.7299 117.43 29.7399 119.31 31.0499 119.78C32.3599 120.25 32.0999 117.46 32.2199 116.54C32.4599 114.77 33.5399 113.17 31.9899 112.7ZM37.7599 113.55C36.8799 113.51 35.9499 114.4 35.8399 116.98C35.7499 119.14 35.8399 120.92 37.0599 121.02C38.6999 121.15 38.2399 119.05 38.3299 117.31C38.3699 116.32 39.5899 113.64 37.7599 113.55ZM60.1499 116.36C58.7399 116.36 58.6999 117.96 58.6999 119.69C58.6999 121.43 58.3399 123.58 59.9199 123.77C61.8399 124 61.4699 121.42 61.4699 119.97C61.4599 118.71 61.6899 116.36 60.1499 116.36ZM66.5299 116.04C65.3999 116.27 65.4999 117.82 65.5399 119.7C65.5899 121.58 65.3099 123.57 66.8999 123.41C68.2599 123.27 68.1699 121.06 68.1199 119.37C68.0799 117.91 68.2699 115.67 66.5299 116.04ZM85.8599 103.81C84.8899 103.62 83.7899 104.44 83.5099 106.63C83.2799 108.51 83.3699 110.16 85.0099 110.52C85.8499 110.71 85.9999 108.55 86.0399 107C86.0899 105.66 87.0799 104.05 85.8599 103.81ZM91.1599 104.95C90.2299 104.8 89.3199 105.37 89.0799 107.7C88.9399 109.06 88.4399 111.5 90.1299 111.59C91.4399 111.65 91.3399 109.5 91.4599 108.38C91.6499 106.61 92.6899 105.21 91.1599 104.95Z" fill="#D27856"/>
</svg>
