<svg width="128" height="128" viewBox="0 0 128 128" fill="none" xmlns="http://www.w3.org/2000/svg">
<path d="M47.7545 34.8515C50.094 44.2311 16.9171 72.1458 7.77579 49.4222C2.47445 36.256 -2.15488 8.6542 3.10734 7.3422C8.36957 6.03376 45.4185 25.4684 47.7545 34.8515Z" fill="#F4900C"/>
<path d="M40.6651 36.8177C44.0784 42.2861 34.1548 53.0345 28.69 56.4514C23.2215 59.8683 18.3824 54.4888 12.9957 40.7572C10.642 34.7519 7.07218 18.4639 9.07395 17.2123C11.0722 15.9643 37.2482 31.3492 40.6651 36.8177Z" fill="#A0041E"/>
<path d="M80.2024 34.8515C77.8664 44.2346 111.04 72.1458 120.185 49.4222C125.482 36.256 130.112 8.6542 124.85 7.3422C119.587 6.03376 82.542 25.4684 80.2024 34.8515Z" fill="#F4900C"/>
<path d="M87.2959 36.8174C83.8826 42.2859 93.8062 53.0343 99.271 56.4512C104.736 59.8681 109.575 54.4885 114.962 40.757C117.315 34.7552 120.885 18.4672 118.887 17.2157C116.885 15.9641 90.7128 31.349 87.2959 36.8174Z" fill="#A0041E"/>
<path d="M115.012 95.6868C115.012 94.0726 114.343 91.8077 113.564 89.6886C115.644 89.7881 118.965 90.3677 123.413 92.5935C123.387 90.8979 123.059 89.2205 122.443 87.6406C122.588 87.7117 122.709 87.7615 122.855 87.8361C118.933 76.0672 111.09 68.2201 111.09 68.2201H118.933C110.645 51.6406 101.28 39.7223 90.2223 34.2326C85.28 31.1286 77.1094 29.4752 64.0072 29.4717H63.9965C50.8587 29.4717 42.6774 31.1357 37.7387 34.2575C26.7023 39.7579 17.3512 51.6655 9.07737 68.2201H16.9245C16.9245 68.2201 9.07737 76.0637 5.15204 87.8361C5.25871 87.7828 5.3476 87.7472 5.45071 87.6939C4.68766 89.2079 4.34158 90.8978 4.44804 92.5899C8.93871 90.3428 12.3307 89.7739 14.4498 89.6815C13.7778 91.5055 13.2303 93.3935 13.0774 94.9259C12.5738 96.4641 12.41 98.0933 12.5974 99.701C24 94.5206 29.3334 95.2601 35.5556 98.3712C39.8685 111.253 50.5103 120.889 64.0036 120.889C77.4898 120.889 87.9894 110.954 92.2987 98.0761C97.4827 93.6317 105.483 94.965 115.111 99.5552C115.32 98.2638 115.277 96.9439 114.983 95.669L115.012 95.6868Z" fill="#F18F26"/>
<path d="M111.086 83.9148C111.107 83.9148 115.026 83.9255 122.851 87.8366C118.41 77.7424 96.0958 73.3655 87.5411 76.1352C83.3776 83.0828 82.9865 93.9237 75.5127 99.6801C69.3225 104.768 58.7553 104.864 52.4762 99.6801C44.1384 92.8392 43.3776 79.0117 40.4513 76.1352C31.8931 73.3584 9.58556 77.7495 5.14111 87.8366C12.9669 83.9219 16.8887 83.9148 16.9064 83.9148C16.9064 83.9183 12.9847 91.7655 12.9847 95.6872L12.9882 95.6837V95.6872C21.5144 90.0944 31.1784 87.6126 39.4024 94.0801C45.326 122.244 83.1109 120.907 88.5865 94.0801C96.814 87.6161 106.471 90.0908 115.001 95.6872C115.008 91.7655 111.09 83.9148 111.086 83.9148Z" fill="#FFD983"/>
<path d="M39.1113 60.4447C39.1113 60.4447 39.1113 55.1113 44.4447 55.1113C49.778 55.1113 49.778 60.4447 49.778 60.4447V65.778C49.778 65.778 49.778 71.1113 44.4447 71.1113C39.1113 71.1113 39.1113 65.778 39.1113 65.778V60.4447ZM78.2224 60.4447C78.2224 60.4447 78.2224 55.1113 83.5558 55.1113C88.8891 55.1113 88.8891 60.4447 88.8891 60.4447V65.778C88.8891 65.778 88.8891 71.1113 83.5558 71.1113C78.2224 71.1113 78.2224 65.778 78.2224 65.778V60.4447ZM53.1167 98.8731C49.4864 99.6127 60.3735 112.982 64.0038 112.982C67.6304 112.982 78.5176 99.6127 74.8909 98.8731C71.2607 98.1336 56.7469 98.1336 53.1167 98.8731Z" fill="#272B2B"/>
</svg>
