<svg width="128" height="128" viewBox="0 0 128 128" fill="none" xmlns="http://www.w3.org/2000/svg">
<path d="M77.0999 105.15C77.2999 104.65 77.4899 104.16 77.6799 103.68C78.8399 100.56 81.0899 95.1305 76.7399 93.2905C74.5899 92.3805 72.5199 91.3305 70.5099 90.0405C68.5899 88.8005 67.1699 86.6405 65.8199 84.8305C64.8199 83.5005 63.4599 81.9905 63.4999 80.2405C63.5599 77.9905 65.0499 75.4205 66.0499 73.4405C67.1399 71.2005 68.4499 69.0705 69.9099 67.0505C71.9999 64.1705 75.3499 60.1305 78.9099 59.1405C81.2299 58.5005 82.8599 58.8305 83.9999 61.0405C85.5599 64.1305 87.0799 67.5705 87.2999 71.0905C87.3699 72.2005 86.9899 73.1205 86.8399 74.1905C86.5899 75.9005 86.7699 77.7405 86.7699 79.4705C86.7699 82.1305 85.8999 85.2805 88.3199 87.2205C90.1099 88.6605 92.1999 91.1805 92.2099 93.5905C92.2099 96.2305 90.6199 99.3505 89.5399 101.69C88.0999 104.79 86.5199 107.83 85.0599 110.93C83.9499 113.29 83.8099 115.65 83.8099 118.24C83.8099 121.61 79.7699 121.32 77.3599 121.37C76.6299 121.39 75.6599 121.57 74.9799 121.2C74.4999 120.94 74.3799 120.46 74.2099 119.97C74.0599 119.53 73.8599 118.98 73.7999 118.51C73.2799 113.86 75.3999 109.41 77.0999 105.15Z" fill="#2F2F2F"/>
<path d="M30.6798 12.0602C30.9498 11.5502 31.3398 11.0602 31.7598 10.6202C34.1098 8.15024 37.8098 6.83024 41.0598 6.00024C42.5998 5.61024 45.1498 4.69024 46.1998 6.53024C46.7498 7.50024 46.4298 8.02024 45.7298 8.77024C44.8298 9.71024 44.6898 10.2802 44.8798 11.6402C44.9998 12.4302 49.9998 12.6602 50.6898 12.7702C51.9698 12.9702 53.0698 13.5202 54.3098 13.8502C55.9798 14.2902 63.9098 13.3202 61.9898 17.1702C61.5098 18.1602 59.1898 18.6002 59.4498 19.8302C59.8598 21.8202 64.2898 21.0602 65.6998 21.1802C66.8898 21.2802 67.7698 21.6702 67.8698 23.0802C67.9698 24.5802 67.0098 24.5502 65.9598 25.2502C65.4598 25.5802 64.3098 26.4802 64.3098 27.1402C64.3398 28.2002 65.7498 28.3102 66.5098 28.5002C67.4798 28.7502 68.4198 28.7702 69.4898 28.7702C70.3498 28.7702 72.1498 28.4402 72.8198 28.9602C75.2598 30.8502 70.3898 32.2102 70.2898 33.6402C70.1398 35.7802 75.3898 35.4002 76.8098 36.0202C77.7898 36.4502 77.9798 37.1602 77.8898 38.2502C77.7398 39.8002 76.6998 39.8702 75.7798 40.9602C73.7698 43.3402 80.2098 41.8402 79.1798 45.0202C78.7698 46.3302 76.9998 47.5302 75.9298 48.2702C73.5598 49.9002 71.0998 50.6102 68.3398 51.3202C66.4998 51.7902 63.8298 52.5802 61.8998 52.0902C61.2398 51.9202 60.9298 51.3802 60.4898 50.9902C59.7898 50.3702 58.9398 49.8002 58.3598 49.0302C56.2098 46.1302 54.6698 42.7902 51.5498 40.6902C50.2398 39.8102 49.3598 39.1502 48.3498 37.9202C47.5798 36.9802 46.5398 35.5702 45.0998 35.8102C44.6698 35.8802 41.8198 30.6202 41.5498 30.1902C39.2498 26.5202 36.9298 22.8402 34.6198 19.1602C34.0098 18.2002 33.4698 17.1202 32.7798 16.2202C32.2298 15.5202 31.4398 15.1402 30.8798 14.4902C30.1998 13.7002 30.2798 12.8502 30.6798 12.0602ZM92.9898 51.2502C92.4898 50.3002 92.4598 49.1402 93.3098 47.5302C96.3398 41.7502 102.79 43.8602 107.53 45.9502C110.88 47.4302 114.13 49.2102 117.7 50.1502C119.25 50.5602 120.74 50.7802 122.34 50.6902C123.92 50.6002 125.89 50.2802 126.71 52.0202C127.42 53.5102 126.71 55.8602 125.92 57.1802C120.62 65.9502 107.58 65.5102 100.86 58.7402C99.5898 57.4602 98.3498 56.1602 97.0198 54.9502C95.5498 53.6202 93.7598 52.6802 92.9898 51.2502Z" fill="#B89278"/>
<path d="M102.15 84.8799C103.96 82.5099 104.75 79.2599 105.31 76.4599C105.89 73.5799 105.86 70.5599 105.8 67.5199C105.76 65.7499 105.5 63.9499 104.92 62.2799C104.36 60.6899 103.31 59.4799 102.59 57.9999C101 54.7599 98.43 52.0799 95.55 49.9599C91.24 46.7899 85.66 46.1699 80.48 46.4499C75.02 46.7399 69.95 48.3699 65.05 45.1499C60.67 42.2499 56.45 37.6999 53.58 33.1699C51.92 30.5399 50.52 27.7499 49 25.0399C49.06 23.0699 49.47 19.5899 49.48 19.5899C49.5 19.4099 53.14 17.9699 53.5 17.7399C54.85 16.8999 56.05 15.8799 56.76 14.4399C57.91 12.1599 58.36 8.77993 55.26 7.88993C52.79 7.17993 49.93 8.21993 47.84 9.53993C45.96 10.7399 41.91 13.8799 41.91 13.8799C41.91 13.8799 39.97 13.7499 36.47 12.9599C32.97 12.1699 29.56 10.2499 29.56 10.2499C29.56 10.2499 28 6.36993 27.28 4.38993C26.92 3.36993 26.39 2.24993 25.61 1.47993C23.73 -0.390073 21.58 0.839927 20.22 2.47993C18.61 4.41993 18.12 6.29993 18.82 8.73993C19.29 10.3799 20.93 13.7199 20.93 13.7199C20.93 13.7199 17.88 16.4399 16.76 17.7099C15.56 19.0599 14.56 20.4399 13.84 22.0599C12.4 25.2799 11.17 28.8599 9.56001 32.1099C6.92 37.4299 2.77 42.0999 1.35 47.9999C-0.109995 54.1299 3.07 59.5399 8.85001 61.8199C13.01 63.4499 17.66 63.8999 21.78 61.9299C24.93 60.4299 27.09 57.7599 29.79 55.6499C30.41 56.5699 30.99 57.5099 31.5 58.4799C33.09 61.4599 34.32 64.6299 35.11 67.8999C35.82 70.8299 35.7 73.6599 35.64 76.6299C35.59 79.1399 35.09 80.8699 36.35 83.2399C37.11 84.6499 38.02 85.3699 39.13 86.4899C41.01 88.3899 43.17 89.7399 45.67 90.5499C48.29 91.3899 50.95 92.0799 53.65 92.5599C56.35 93.0299 59.06 93.0599 61.77 93.3399C64.07 93.5699 66.71 92.4199 68.83 91.5999C71.27 90.6599 73.64 89.5399 76.04 88.5099C78.14 87.5999 80.28 86.7399 82.5 86.1199C83.64 85.7999 84.76 85.7699 85.97 85.7599C87.07 85.7499 87.66 86.1599 88.53 86.7999C89.37 87.4199 90.17 88.1799 91.2 88.2899C91.82 88.3599 92.41 88.3399 93 88.4599C94.19 88.6899 95.56 89.0199 96.75 88.6399C98.13 88.1999 99.48 87.3399 100.61 86.4399C101.2 85.9799 101.7 85.4499 102.15 84.8799Z" fill="#855C52"/>
<path d="M35.1502 36.9295C32.7202 36.6495 31.2702 34.5095 31.8902 32.1295C32.3102 30.4995 33.5202 29.1295 35.2902 29.2595C40.3302 29.6295 40.4302 37.5295 35.1502 36.9295Z" fill="#2F2F2F"/>
<path d="M111.75 94.9501C110.86 91.7201 107.73 89.4401 107.32 85.9401C106.84 81.8401 108.21 77.8401 108.15 73.7501C108.12 71.6101 107.57 69.5001 107.02 67.4401C106.6 65.8601 106.08 64.2901 105.34 62.8201C105.2 62.5301 104.97 61.8601 104.71 61.6801C104.49 61.5301 104.13 61.5901 103.84 61.5601C103.08 61.4601 102.34 61.2101 101.58 61.2101H94.1298C93.1698 61.2101 92.2498 61.0801 91.2798 61.0801C90.1798 61.0801 89.0898 61.1901 87.9998 61.2201C84.1798 61.3001 80.3198 62.1001 76.5098 62.4701C71.2298 62.9801 66.1798 64.4901 60.8398 64.4601C57.7198 64.4501 54.6098 64.7401 51.4798 64.7401C49.0898 64.7401 46.6998 64.7301 44.3098 64.7401C42.5498 64.7501 40.7998 64.4501 39.0298 64.6301C38.6698 64.6701 34.4898 65.4701 34.3698 65.1501C34.3798 65.1801 36.1398 70.5801 33.0298 75.1401C30.9798 78.1401 27.3398 82.1101 24.8698 84.6701C22.2898 87.3401 21.5598 90.4401 22.2298 94.0401C22.6798 96.4301 23.4398 98.7301 24.0898 101.06C24.6498 103.09 24.8798 105.28 25.9198 107.15C27.0098 109.11 28.8498 110.55 30.6598 111.82C31.9298 112.71 33.3898 113.75 35.0698 113.38C36.5198 113.06 37.9698 111.11 38.3998 109.65C38.8398 108.13 38.7898 105.87 37.9798 104.5C37.4498 103.58 36.4298 103.18 35.5698 102.66C34.0098 101.72 33.4598 98.8401 33.0998 97.2401C32.6698 95.3101 32.3098 93.2801 34.2498 92.1601C35.5098 91.4301 36.8298 90.8901 38.2298 90.5101C39.6898 90.1001 41.1998 89.2501 42.7298 89.5101C44.6598 89.8401 47.0598 91.3701 48.7598 92.3601C49.6998 92.9101 50.0098 93.8101 50.1198 94.8301C50.2598 96.0701 50.3798 97.2501 50.3798 98.5201C50.3798 101.37 50.5198 104.25 50.5198 107.13V111.87C50.5198 114.42 50.3798 116.96 50.3798 119.51C50.3798 121.08 50.2498 122.65 50.2498 124.23C50.2498 124.89 50.2298 125.77 50.5198 126.38C50.7998 126.94 51.3998 127.09 51.9798 127.24C53.0098 127.51 54.1498 127.48 55.2698 127.48C56.4798 127.48 57.8098 127.36 58.8498 126.63C59.8598 125.92 59.7298 124.07 59.6198 123.01C59.0398 117.94 59.4898 112.78 60.6898 107.83C61.5998 104.08 63.4498 100.73 64.5898 97.0701C65.4298 94.4001 66.9698 93.2001 69.5698 92.3901C70.5798 92.0801 71.6698 91.9701 72.7098 91.7001C75.9298 90.8801 78.9798 89.4301 82.0698 88.2301C83.2398 87.7801 85.3998 86.6101 86.5498 87.5701C87.3798 88.2701 87.9698 89.5301 88.6498 90.3801C89.4698 91.3901 90.3598 92.3601 91.4498 93.0601C93.4498 94.3501 95.5298 95.3901 97.6798 96.3101C99.6598 97.1401 99.8498 97.7601 99.8298 99.7501C99.7998 102.45 99.0498 104.73 98.1898 107.25C97.4798 109.32 96.8898 111.44 96.2798 113.54C95.4698 116.31 94.3198 120.58 95.5698 123.41C96.0698 124.55 97.9498 124.57 98.9898 124.62C100.67 124.7 102.48 124.18 103.95 123.43C104.91 122.94 105.14 122.58 105.14 121.5C105.14 118.97 105.15 116.57 105.82 114.11C106.49 111.67 108.3 108.35 109.29 106.04C110.65 102.86 112.65 98.9101 111.9 95.3601C111.837 95.2286 111.786 95.0913 111.75 94.9501Z" fill="#855C52"/>
<mask id="mask0_4614_15549" style="mask-type:luminance" maskUnits="userSpaceOnUse" x="21" y="61" width="92" height="67">
<path d="M111.75 94.9501C110.86 91.7201 107.73 89.4401 107.32 85.9401C106.84 81.8401 108.21 77.8401 108.15 73.7501C108.12 71.6101 107.57 69.5001 107.02 67.4401C106.6 65.8601 106.08 64.2901 105.34 62.8201C105.2 62.5301 104.97 61.8601 104.71 61.6801C104.49 61.5301 104.13 61.5901 103.84 61.5601C103.08 61.4601 102.34 61.2101 101.58 61.2101H94.1298C93.1698 61.2101 92.2498 61.0801 91.2798 61.0801C90.1798 61.0801 89.0898 61.1901 87.9998 61.2201C84.1798 61.3001 80.3198 62.1001 76.5098 62.4701C71.2298 62.9801 66.1798 64.4901 60.8398 64.4601C57.7198 64.4501 54.6098 64.7401 51.4798 64.7401C49.0898 64.7401 46.6998 64.7301 44.3098 64.7401C42.5498 64.7501 40.7998 64.4501 39.0298 64.6301C38.6698 64.6701 34.4898 65.4701 34.3698 65.1501C34.3798 65.1801 36.1398 70.5801 33.0298 75.1401C30.9798 78.1401 27.3398 82.1101 24.8698 84.6701C22.2898 87.3401 21.5598 90.4401 22.2298 94.0401C22.6798 96.4301 23.4398 98.7301 24.0898 101.06C24.6498 103.09 24.8798 105.28 25.9198 107.15C27.0098 109.11 28.8498 110.55 30.6598 111.82C31.9298 112.71 33.3898 113.75 35.0698 113.38C36.5198 113.06 37.9698 111.11 38.3998 109.65C38.8398 108.13 38.7898 105.87 37.9798 104.5C37.4498 103.58 36.4298 103.18 35.5698 102.66C34.0098 101.72 33.4598 98.8401 33.0998 97.2401C32.6698 95.3101 32.3098 93.2801 34.2498 92.1601C35.5098 91.4301 36.8298 90.8901 38.2298 90.5101C39.6898 90.1001 41.1998 89.2501 42.7298 89.5101C44.6598 89.8401 47.0598 91.3701 48.7598 92.3601C49.6998 92.9101 50.0098 93.8101 50.1198 94.8301C50.2598 96.0701 50.3798 97.2501 50.3798 98.5201C50.3798 101.37 50.5198 104.25 50.5198 107.13V111.87C50.5198 114.42 50.3798 116.96 50.3798 119.51C50.3798 121.08 50.2498 122.65 50.2498 124.23C50.2498 124.89 50.2298 125.77 50.5198 126.38C50.7998 126.94 51.3998 127.09 51.9798 127.24C53.0098 127.51 54.1498 127.48 55.2698 127.48C56.4798 127.48 57.8098 127.36 58.8498 126.63C59.8598 125.92 59.7298 124.07 59.6198 123.01C59.0398 117.94 59.4898 112.78 60.6898 107.83C61.5998 104.08 63.4498 100.73 64.5898 97.0701C65.4298 94.4001 66.9698 93.2001 69.5698 92.3901C70.5798 92.0801 71.6698 91.9701 72.7098 91.7001C75.9298 90.8801 78.9798 89.4301 82.0698 88.2301C83.2398 87.7801 85.3998 86.6101 86.5498 87.5701C87.3798 88.2701 87.9698 89.5301 88.6498 90.3801C89.4698 91.3901 90.3598 92.3601 91.4498 93.0601C93.4498 94.3501 95.5298 95.3901 97.6798 96.3101C99.6598 97.1401 99.8498 97.7601 99.8298 99.7501C99.7998 102.45 99.0498 104.73 98.1898 107.25C97.4798 109.32 96.8898 111.44 96.2798 113.54C95.4698 116.31 94.3198 120.58 95.5698 123.41C96.0698 124.55 97.9498 124.57 98.9898 124.62C100.67 124.7 102.48 124.18 103.95 123.43C104.91 122.94 105.14 122.58 105.14 121.5C105.14 118.97 105.15 116.57 105.82 114.11C106.49 111.67 108.3 108.35 109.29 106.04C110.65 102.86 112.65 98.9101 111.9 95.3601C111.837 95.2286 111.786 95.0913 111.75 94.9501Z" fill="white"/>
</mask>
<g mask="url(#mask0_4614_15549)">
<path d="M35.1097 102.3C35.1097 102.3 35.2797 111.08 29.4697 110.98L30.1997 113.06L35.5097 115.86L40.4797 113.37L41.8897 105.9L39.5597 101.38L35.1097 102.3ZM50.2997 121.16C50.2997 121.16 53.2697 123.33 59.4097 121.31L62.1297 123.03L61.8197 129.88L47.3397 129.72L47.9597 122.4L50.2997 121.16ZM95.1597 118.08C95.1597 118.08 98.2797 120.88 105.16 117.98L106.42 118.74L106.69 125.66L94.9297 126.97L92.8497 121.35L95.1597 118.08Z" fill="#78A3AD"/>
</g>
<path d="M18.1302 56.3504C17.3202 56.8404 16.3102 57.2804 15.3502 57.0904C14.4902 56.9204 13.6002 56.1804 14.0802 55.2004C14.3802 54.5904 15.0402 54.0804 15.6202 53.7504C16.3602 53.3204 18.5402 52.6604 19.2302 53.4904C20.1102 54.5504 19.0302 55.8204 18.1302 56.3504Z" fill="#2F2F2F"/>
</svg>
