<svg width="128" height="128" viewBox="0 0 128 128" fill="none" xmlns="http://www.w3.org/2000/svg">
<path d="M54.0602 25.75C54.0602 25.75 65.3702 26.26 76.3802 28.57L83.8302 33.57L78.2802 46.07L65.8802 49.03L53.3802 41.16L47.6402 31.44L54.0602 25.75ZM15.9902 41.55L17.4802 39.67L18.5002 33.15L25.3902 28.46L28.0702 30.17C28.0702 30.17 29.1702 29.84 32.4902 28.68L37.2502 33.42L25.5302 49.15L15.7402 47.63L15.9902 41.55Z" fill="#B89278"/>
<path d="M114.41 63.5798C113.91 59.9298 112.78 56.2698 111.13 52.8198C108.7 47.7398 105.15 43.1198 100.95 39.6998C97.46 36.8598 93.38 35.0998 89.41 33.0498C85.19 30.8698 80.91 29.5098 76.39 28.5698C77.12 29.8498 77.34 31.6198 77.45 32.7998C77.71 35.5398 76.84 37.1998 75.29 39.2598C73.62 41.4898 70.66 45.3598 67.36 44.1598C64.84 43.2398 63.79 39.7098 61.38 38.4198C59.97 37.6698 58.53 37.3998 57.21 36.6298C55.45 35.5898 53.86 33.7298 53.28 31.7598C52.99 30.8098 53.08 29.4998 53.33 28.2498C53.47 27.5498 53.64 26.5298 54.06 25.7598C50.95 25.6598 47.94 25.7198 45.23 25.8798C40.9 26.1298 36.55 27.0298 32.49 28.6898C32.52 29.2498 33.75 32.8298 29.7 35.2298C28.39 35.9998 26.97 36.3298 25.58 37.1098C23.67 38.1898 23.11 41.5098 21.04 42.1498C18.57 42.9198 16.79 41.8098 15.99 41.5498C12.47 45.7498 9.39 50.3698 6.56 54.8998C0.690001 64.3198 -2.4 76.9498 3.13 87.2698C7.94 96.2498 17.11 100.86 26.85 103.22C27.24 104.8 27.57 106.39 27.86 107.98C28.11 109.39 28.51 110.79 28.62 112.22C28.74 113.83 28.62 114.88 30.28 115.59C31.62 116.17 33.15 116.21 34.59 116.32C37.32 116.54 40.81 116.62 41.08 113.19C41.25 110.98 41.07 106.4 43.87 105.66C44.24 105.56 44.66 105.5 45.08 105.46C45.68 105.46 46.28 105.47 46.89 105.45C48.6 105.6 50.32 106.15 51.49 107.01C53.21 108.29 53.84 110.36 54.45 112.32C54.72 113.16 54.91 113.97 55.03 114.85C55.21 116.07 55.21 117.39 55.51 118.57C55.85 119.93 57.11 120.23 58.33 120.51C61.58 121.25 65.69 121.32 68.23 118.81C68.85 118.19 68.7 117.58 68.7 116.79C68.7 114.21 68.05 109.3 69.82 107.15C70.3 106.57 70.99 106.43 71.71 106.43C72.14 106.49 72.57 106.52 73 106.57C74.71 107.68 74.68 110.4 75.47 112.17C75.99 113.33 79.01 113.32 80.06 113.37H80.13C82.01 113.45 84.5 113.36 85.77 111.73C86.56 110.73 86.38 109.66 86.48 108.48C86.56 107.36 86.54 105.85 87.44 105.05C87.54 104.95 87.67 104.93 87.79 104.87C88.18 104.78 88.59 104.69 89 104.67C89.26 104.66 89.51 104.67 89.74 104.7C91.02 104.87 92.04 105.61 92.71 106.71C93.01 107.22 93.33 107.83 93.41 108.41C93.52 109.14 93.83 109.76 93.98 110.48C94.11 111.05 94.22 111.6 94.36 112.17C94.55 112.89 94.99 113.51 95.57 113.97C97.61 115.63 104.38 115.8 106.25 113.64C106.7 113.11 106.88 112.25 106.97 111.58C107.12 110.37 107.08 109.1 107.19 107.87C107.36 106.21 107.61 104.58 107.88 102.91C108.13 101.32 108.5 99.7498 108.92 98.1998C110.66 91.7798 113.48 85.5698 114.28 78.9098C114.88 73.8198 115.1 68.6598 114.41 63.5798Z" fill="#FCD4B5"/>
<mask id="mask0_4614_15512" style="mask-type:luminance" maskUnits="userSpaceOnUse" x="0" y="25" width="115" height="96">
<path d="M114.41 63.5798C113.91 59.9298 112.78 56.2698 111.13 52.8198C108.7 47.7398 105.15 43.1198 100.95 39.6998C97.46 36.8598 93.38 35.0998 89.41 33.0498C85.19 30.8698 80.91 29.5098 76.39 28.5698C77.12 29.8498 77.34 31.6198 77.45 32.7998C77.71 35.5398 76.84 37.1998 75.29 39.2598C73.62 41.4898 70.66 45.3598 67.36 44.1598C64.84 43.2398 63.79 39.7098 61.38 38.4198C59.97 37.6698 58.53 37.3998 57.21 36.6298C55.45 35.5898 53.86 33.7298 53.28 31.7598C52.99 30.8098 53.08 29.4998 53.33 28.2498C53.47 27.5498 53.64 26.5298 54.06 25.7598C50.95 25.6598 47.94 25.7198 45.23 25.8798C40.9 26.1298 36.55 27.0298 32.49 28.6898C32.52 29.2498 33.75 32.8298 29.7 35.2298C28.39 35.9998 26.97 36.3298 25.58 37.1098C23.67 38.1898 23.11 41.5098 21.04 42.1498C18.57 42.9198 16.79 41.8098 15.99 41.5498C12.47 45.7498 9.39 50.3698 6.56 54.8998C0.690001 64.3198 -2.4 76.9498 3.13 87.2698C7.94 96.2498 17.11 100.86 26.85 103.22C27.24 104.8 27.57 106.39 27.86 107.98C28.11 109.39 28.51 110.79 28.62 112.22C28.74 113.83 28.62 114.88 30.28 115.59C31.62 116.17 33.15 116.21 34.59 116.32C37.32 116.54 40.81 116.62 41.08 113.19C41.25 110.98 41.07 106.4 43.87 105.66C44.24 105.56 44.66 105.5 45.08 105.46C45.68 105.46 46.28 105.47 46.89 105.45C48.6 105.6 50.32 106.15 51.49 107.01C53.21 108.29 53.84 110.36 54.45 112.32C54.72 113.16 54.91 113.97 55.03 114.85C55.21 116.07 55.21 117.39 55.51 118.57C55.85 119.93 57.11 120.23 58.33 120.51C61.58 121.25 65.69 121.32 68.23 118.81C68.85 118.19 68.7 117.58 68.7 116.79C68.7 114.21 68.05 109.3 69.82 107.15C70.3 106.57 70.99 106.43 71.71 106.43C72.14 106.49 72.57 106.52 73 106.57C74.71 107.68 74.68 110.4 75.47 112.17C75.99 113.33 79.01 113.32 80.06 113.37H80.13C82.01 113.45 84.5 113.36 85.77 111.73C86.56 110.73 86.38 109.66 86.48 108.48C86.56 107.36 86.54 105.85 87.44 105.05C87.54 104.95 87.67 104.93 87.79 104.87C88.18 104.78 88.59 104.69 89 104.67C89.26 104.66 89.51 104.67 89.74 104.7C91.02 104.87 92.04 105.61 92.71 106.71C93.01 107.22 93.33 107.83 93.41 108.41C93.52 109.14 93.83 109.76 93.98 110.48C94.11 111.05 94.22 111.6 94.36 112.17C94.55 112.89 94.99 113.51 95.57 113.97C97.61 115.63 104.38 115.8 106.25 113.64C106.7 113.11 106.88 112.25 106.97 111.58C107.12 110.37 107.08 109.1 107.19 107.87C107.36 106.21 107.61 104.58 107.88 102.91C108.13 101.32 108.5 99.7498 108.92 98.1998C110.66 91.7798 113.48 85.5698 114.28 78.9098C114.88 73.8198 115.1 68.6598 114.41 63.5798Z" fill="white"/>
</mask>
<g mask="url(#mask0_4614_15512)">
<path d="M70.8299 106.55C70.8299 106.55 76.7999 103.01 89.7299 104.7L89.2799 113.43L70.6699 115.37L70.8299 106.55Z" fill="#B89278"/>
</g>
<path d="M14.3998 70.1904C14.5498 70.0204 14.7098 69.8504 14.8598 69.6804C17.5098 67.0204 20.7698 66.2304 24.5098 66.1804C24.7798 66.1704 25.0598 66.1704 25.3398 66.1804C29.9398 66.3404 35.5198 68.4503 37.6898 72.7403C39.6898 76.6903 39.2398 83.5503 34.2498 85.2003C33.2998 85.5103 32.2298 85.7603 31.1298 85.9604C29.1598 86.3204 27.0198 86.5004 24.8698 86.4304C22.8898 86.3604 20.9098 86.0804 19.0698 85.5704C17.2398 85.0604 15.5498 84.3204 14.1498 83.3204C9.83979 80.2404 11.4198 73.6004 14.3998 70.1904Z" fill="#F79329"/>
<path d="M22.6198 76.4896C22.7198 73.7296 22.3398 71.4696 20.5398 71.3996C18.7298 71.3396 18.1998 73.5596 18.1098 76.3296C18.0098 79.0896 18.3798 81.3596 20.1898 81.4196C21.9898 81.4796 22.5198 79.2496 22.6198 76.4896ZM30.0298 81.7696C31.8398 81.8296 32.3698 79.5996 32.4698 76.8396C32.5598 74.0796 32.1898 71.8196 30.3898 71.7496C28.5798 71.6896 28.0598 73.9096 27.9598 76.6796C27.8598 79.4396 28.2298 81.7096 30.0298 81.7696ZM13.7398 59.3096C14.9998 56.6796 17.7698 55.4196 19.9198 56.5096C22.0798 57.5896 22.8098 60.6096 21.5598 63.2396C20.2998 65.8796 17.5198 67.1196 15.3798 66.0596C13.2198 64.9696 12.4898 61.9396 13.7398 59.3096ZM50.1098 68.3696C47.6098 68.8996 45.1098 66.8896 44.5098 63.8496C43.9198 60.8196 45.4798 57.8996 47.9698 57.3696C50.4798 56.8196 52.9798 58.8596 53.5798 61.8796C54.1598 64.9296 52.6098 67.8296 50.1098 68.3696Z" fill="#2F2F2F"/>
<path d="M56.8402 27.6597C58.7902 22.1597 68.5302 24.0197 71.8202 26.9297C74.6602 29.4297 75.1502 34.3197 73.0902 37.5497C72.3902 38.6497 71.5502 39.9797 70.3502 40.5697C67.1102 42.1697 66.0602 38.3697 64.1202 36.7797C63.0502 35.8997 61.8302 35.2097 60.5902 34.5897C57.8202 33.2097 55.6802 30.9597 56.8402 27.6597ZM28.0802 27.6797C23.4302 26.3397 17.1202 29.3197 15.5802 33.9197C14.9602 35.7397 15.2202 36.8397 16.2802 38.3597C16.9102 39.2497 18.2002 40.6497 19.4402 40.3997C20.7402 40.1197 21.4102 37.8497 22.2802 36.9297C23.5802 35.5597 25.1502 34.5397 26.8102 33.6597C28.0202 33.0197 30.9102 31.7097 30.3802 29.8897C30.0402 28.6697 29.1802 27.9897 28.0802 27.6797ZM127.65 59.7297C127.44 59.3797 126.99 59.5197 126.67 59.5897C126 59.7397 125.37 60.0297 124.68 60.0297C124.55 60.0297 124.29 60.0497 124.18 59.9797C123.99 59.8597 124.23 59.3297 124.26 59.1697C124.33 58.8797 124.38 58.5697 124.4 58.2597C124.46 57.6797 124.4 57.0797 124.19 56.5197C123.83 55.5497 123.12 54.7097 122.24 54.1597C121.11 53.4597 119.73 53.2197 118.44 53.4297C116.44 53.7497 114.85 55.5297 114.47 57.4597C114.38 57.9397 114.41 58.4497 114.51 58.9197C114.57 59.2097 114.74 59.4697 114.88 59.7197C114.93 59.8197 115.23 60.1197 115.15 60.2297C115.07 60.3397 114.56 60.2797 114.44 60.2597C113.95 60.2097 113.48 60.0397 113.02 59.8297C112.59 59.6297 112.19 59.3897 111.81 59.0997C111.45 58.8197 111.09 58.2897 110.6 58.2597C110.19 58.2297 109.78 58.6897 109.53 58.9697C108.96 59.6097 108.81 60.4797 108.7 61.3097C108.6 62.0397 108.47 62.8197 108.74 63.5297C108.97 64.0997 109.36 64.6097 109.86 64.9697C110.95 65.7397 112.34 66.1297 113.8 66.2097C115.78 66.3097 117.83 65.8697 119.57 64.9097C119.96 64.6897 120.34 64.4497 120.69 64.1597C120.9 63.9897 121.08 63.7697 121.31 63.6297C121.66 63.4097 122.13 63.5097 122.51 63.4897C123.01 63.4697 123.51 63.4297 124.01 63.3397C125.32 63.0997 126.7 62.3897 127.42 61.2197C127.66 60.8297 127.93 60.1897 127.65 59.7297ZM120.87 58.4097C120.81 58.6197 120.72 58.8197 120.64 59.0197C120.25 59.0997 119.59 58.9497 119.24 58.7597C118.69 58.4697 118.45 57.8197 118.8 57.2797C119.21 56.6597 120.03 56.5597 120.57 57.0697C120.9 57.3897 120.99 57.9797 120.87 58.4097Z" fill="#FCD4B5"/>
</svg>
