<svg width="128" height="128" viewBox="0 0 128 128" fill="none" xmlns="http://www.w3.org/2000/svg">
<path d="M108.812 104.053C111.406 103.409 113.055 101.057 112.494 98.8007C111.933 96.5442 109.376 95.2374 106.782 95.8819C104.187 96.5264 102.539 98.8781 103.1 101.135C103.66 103.391 106.218 104.698 108.812 104.053Z" fill="#B0BEC5"/>
<path d="M76.4601 62.0195C77.2501 62.0195 77.8701 62.5595 78.1701 63.9195C78.3501 64.7295 78.4501 65.5595 78.5601 66.3795C78.8901 68.9095 79.4901 71.0995 81.3801 72.9095C82.9201 74.3595 84.5101 75.5595 85.9501 77.1395C90.0901 81.6595 96.9801 83.0195 101.34 87.8395C104.28 91.0695 106.35 95.1395 107.5 99.3395C108.81 104.11 109.72 109.46 108.53 114.34C106.88 121.13 101.01 122.18 94.8501 123.37C90.0201 124.3 68.1701 126.74 65.4301 126.74H64.8601C63.8501 126.72 61.5101 126.81 60.5501 125.72C59.7601 124.72 59.9001 122.06 60.0101 121.18C60.0901 118.32 60.1001 115.18 59.5101 114.46C59.2301 114.1 57.8501 113.97 57.6901 115.01C57.3601 116.9 57.1701 121.46 57.3201 123.52C57.6001 127.52 52.7001 126.82 49.2801 126.82C47.1401 126.82 45.0001 126.57 44.0301 124.9C43.2501 123.24 44.5301 118.11 44.4901 116.15C44.4101 112.08 43.9901 107.57 43.2001 103.57C42.8401 101.75 42.3801 99.9595 41.7401 98.2195C41.4001 97.2795 39.5601 94.4195 39.8601 93.4995C40.1601 92.5595 41.0701 92.6495 41.7701 92.2995C42.6101 91.8895 43.1601 91.2395 43.8801 90.6295C45.8801 88.9095 47.9401 87.2395 49.9701 85.5595C54.0101 82.1895 58.0601 78.8195 62.1001 75.4495C63.7601 74.0695 65.7901 72.7695 67.0101 70.9895C68.0601 69.4595 73.5001 62.0195 76.4601 62.0195Z" fill="#E0E0E0"/>
<path d="M71.5398 126.23C73.9798 125.71 72.8498 121.48 72.8598 118.65C72.8598 118.22 73.0798 115.7 76.4398 114.69C77.6398 114.33 78.9898 114.41 79.9598 113.61C81.4998 112.34 81.9698 110.28 82.8598 108.5C84.1998 105.82 88.3498 103.6 90.0398 104.29C90.4598 104.46 88.1798 105.27 87.3198 105.88C86.7498 106.29 86.1898 106.73 85.7698 107.3C84.2698 109.33 84.1998 112.37 82.7998 114.47C81.7998 115.97 78.4798 115.72 77.1098 116.91C75.6898 118.14 75.5998 120.98 76.3998 122.68C76.8598 123.66 78.1398 125.37 80.9698 125.21C80.9798 125.21 73.7598 126 71.5398 126.23ZM44.3098 112.13C45.3998 107.8 50.6198 106.54 53.0198 106.5C62.0398 106.38 67.0498 104.8 73.7898 102.66C78.3398 101.22 85.8698 96.4101 87.4298 90.2401C87.6298 89.4401 87.1398 88.2601 86.3198 88.4001C84.3898 89.8301 84.7898 92.3301 69.0198 97.5201C61.9498 99.8401 46.0698 98.8001 41.2598 97.1401C42.2798 99.3201 42.9798 102.12 43.3898 104.44L44.3098 112.13Z" fill="#B0BEC5"/>
<path d="M80.87 52.1204C80.84 55.3704 82.62 61.2304 83.9 63.8704C85.81 67.7904 87.5 71.9104 88.19 76.2304C89.11 81.9704 88.34 88.0704 83.99 92.2104C77.31 98.5504 68.46 101.41 59.38 101.67C58.94 101.68 58.4899 101.69 58.0299 101.69C46.2999 101.69 28.25 97.5504 24.35 85.0704C23.2 81.4004 23.59 75.8304 25.15 72.3204C27.09 67.9404 27.87 62.4904 29.98 57.7204C31.35 54.6104 33.29 51.2904 36.1 49.2604C36.96 48.6504 38.24 48.1304 38.34 46.9404C38.45 45.6304 37.06 43.5404 36.37 42.4804C31.12 34.2304 23.74 27.7004 17.27 20.4504C15.94 18.9604 15.15 16.9704 14.35 15.1004C13.58 13.3204 13.36 11.4604 13.37 9.50039C13.37 6.24039 15.97 3.64039 18.9 2.56039C21.94 1.44039 25.52 1.94039 28.52 2.92039C30.63 3.60039 32.61 4.65039 34.42 5.92039C40.09 9.92039 45 15.3504 48.1399 21.5504C51.56 28.2704 52.05 35.5104 53.65 42.7604C53.97 44.2404 54.31 44.6304 55.91 44.6304C57.6199 44.6304 59.34 44.8004 61.04 44.8604C62 44.8904 63.1399 45.0104 64 44.4904C66.07 43.2504 66.4999 39.0304 67.1299 36.8904C69.8899 27.4404 72.4 15.0604 78.98 7.31039C80.63 5.37039 82.75 3.69039 85.05 2.55039C85.42 2.36039 85.86 2.19039 86.33 2.02039C89 1.10039 92.32 0.750385 94.95 2.01039C99.32 4.09038 99.28 9.99039 98.54 14.0504C97.61 19.1404 93.57 26.4304 91.04 30.8404C88.7 34.9004 80.91 47.0704 80.87 52.1204Z" fill="#E0E0E0"/>
<path d="M40.6502 71.2599C38.1802 71.2399 36.1702 73.5699 36.1602 76.4399C36.1502 79.3199 38.1402 81.6599 40.6102 81.6799C43.0602 81.6899 45.0902 79.3799 45.1002 76.4899C45.1202 73.6299 43.1202 71.2699 40.6502 71.2599ZM70.5302 71.2599C68.0702 71.2699 66.0702 73.6299 66.1002 76.4899C66.1002 79.3799 68.1302 81.6899 70.5802 81.6799C73.0502 81.6599 75.0402 79.3199 75.0302 76.4399C75.0102 73.5799 73.0002 71.2499 70.5302 71.2599Z" fill="#2F2F2F"/>
<path d="M88.1702 9.96965C86.4402 10.2897 84.6502 11.5197 83.6802 12.5797C81.7102 14.7297 80.4602 17.4496 79.3202 20.0997C77.7202 23.8297 75.3702 30.4397 74.0902 34.2897C73.4902 36.0897 72.9202 37.8596 72.4002 39.6896C71.8802 41.4996 71.2302 43.2396 71.1602 45.1396C71.1302 46.0896 71.3702 46.3796 72.2602 46.7596C73.1702 47.1496 74.3002 47.7197 75.2802 47.8396C75.8502 47.9096 76.0602 47.8896 76.3702 47.4697C76.6302 47.1096 76.8302 46.5597 77.1202 46.1596C78.4002 44.3696 79.1002 41.9797 80.1402 40.0397C81.3802 37.7097 82.7202 35.4396 83.9302 33.0996C85.6102 29.8496 88.6202 23.9797 90.0702 20.6097C91.0202 18.3997 93.4002 12.5797 91.0002 10.5797C90.2002 9.89965 89.2002 9.76965 88.1702 9.96965ZM47.9402 44.7296C49.7302 43.6297 47.8002 39.5097 47.3402 38.0497C46.2802 34.6397 44.7102 31.4297 43.1402 28.2297C39.7002 21.2497 35.1702 14.2597 28.3102 10.2197C27.0402 9.46965 25.8002 8.83965 24.3202 9.25965C22.2702 9.84965 21.4202 10.8797 21.5602 13.0497C21.8602 17.7896 28.2102 22.3197 31.0502 25.6997C33.4102 28.5097 35.5602 31.4997 37.6202 34.5397C39.3702 37.1197 40.7902 39.9096 42.2702 42.6596C42.6802 43.4096 43.3002 45.3396 44.2102 45.6896C44.8802 45.9696 46.9502 45.3396 47.9402 44.7296Z" fill="#ED80AD"/>
<path d="M66.4601 90.7896C64.9201 90.0096 63.4201 92.2896 61.9701 92.4596C60.2901 92.6596 58.7501 91.8996 58.5101 91.0796C58.4201 90.7696 58.3101 89.5496 58.2901 89.2796C60.5601 88.3696 61.6901 86.7096 61.6801 85.8196C61.6801 85.2296 61.3901 84.6796 60.8301 84.6096C60.2301 84.5396 59.8401 84.8496 59.3701 85.1896C58.2301 85.9896 57.7601 86.4296 55.9401 86.4196C54.7201 86.4096 53.7401 85.7996 53.0101 85.1496C52.6801 84.8596 51.9101 84.3596 51.2901 84.9096C49.9401 86.0996 52.1001 88.2696 53.2401 88.7696C53.7501 88.9996 54.1901 89.2196 54.6701 89.3996C54.6701 90.1296 54.6601 90.8696 54.6501 90.9996C54.5701 91.9496 53.5801 92.4296 52.7001 92.6496C51.9601 92.8296 50.9001 92.6996 50.1901 92.3996C49.5401 92.1396 49.1301 91.4896 48.6801 90.9996C48.2001 90.4896 47.6201 90.2596 47.0601 90.5396C46.1601 90.9896 46.0801 92.0896 46.6101 93.1296C47.2601 94.3996 48.0501 94.8796 48.9101 95.3596C50.1001 96.0296 52.8401 96.2396 54.6201 95.4196C56.0901 94.7496 56.6001 93.8596 57.6601 94.6696C59.1101 95.7696 61.1801 95.8996 63.0301 95.4296C64.6001 95.0396 68.5501 91.8496 66.4601 90.7896Z" fill="#2F2F2F"/>
</svg>
