<svg width="128" height="128" viewBox="0 0 128 128" fill="none" xmlns="http://www.w3.org/2000/svg">
<path d="M105.62 100.4C106.8 103.21 108.06 106.07 109.98 108.47C111.01 109.77 112.3 110.95 113.88 111.51C115.58 112.12 117.39 111.86 119 111.12C120.43 110.46 121.16 109.39 121.21 107.83C121.33 103.83 120.33 99.9301 119.48 96.0501C118.67 92.3201 118.27 88.5301 117.68 84.7501C117.37 82.7901 113.53 84.1801 112.32 84.5401C110.34 85.1401 108.39 86.0001 106.62 87.0701C105.86 87.5301 105.15 88.0101 104.65 88.7601C104.28 89.3301 104.13 89.8001 103.97 90.4401C103.11 93.8401 104.3 97.2801 105.62 100.4ZM82.7902 105.85C82.9902 106.81 83.2302 107.75 83.5402 108.63C83.9902 109.93 84.8402 110.9 86.1002 111.47C89.1002 112.84 93.3402 111.45 94.3702 108.16C95.5102 104.54 96.6202 100.48 96.6102 96.6501C96.6102 96.3601 96.8302 95.8201 96.6902 95.5701C96.5302 95.2701 95.9702 95.4301 95.7002 95.4301C94.9902 95.4301 94.3202 95.4601 93.6202 95.5301C93.1102 95.5801 92.6002 95.5701 92.0902 95.6201C91.6302 95.6601 91.1802 95.7001 90.7102 95.7101C90.1702 95.7201 89.6402 95.8301 89.0902 95.8801C88.5002 95.9301 87.9002 95.8801 87.3102 95.9301C86.1402 96.0201 84.8302 96.0701 83.6902 96.3501C83.0402 96.5101 82.6302 96.7201 82.3402 97.3401C82.0502 97.9401 82.1802 98.7301 82.1802 99.3701C82.1702 101.44 82.3502 103.71 82.7902 105.85ZM54.7502 110.92C54.9702 112.24 55.2102 113.55 55.4402 114.86C55.5902 115.73 55.6702 116.69 55.9602 117.53C57.9402 123.19 63.1602 126.12 67.8702 122.53C70.1602 120.78 70.4002 117.52 70.4102 114.87C70.4202 112.29 70.4402 109.7 70.3702 107.12C70.3102 104.85 70.4202 102.3 69.8702 100.1C69.6902 99.3601 68.9602 99.0901 68.2802 99.0601C66.3302 99.0101 64.3602 99.1001 62.4202 99.2701C60.9102 99.4001 59.4002 99.8201 57.9202 100.11C56.7202 100.35 55.5102 100.87 54.5402 101.6C53.2702 102.57 54.0702 106.03 54.2202 107.35C54.3602 108.56 54.5502 109.74 54.7502 110.92ZM23.0902 101.97C22.2502 104.14 21.3702 106.3 20.4702 108.45C19.6502 110.41 17.8602 114.04 18.8602 116.22C21.1702 121.22 27.5202 119.98 30.9402 117C32.7902 115.39 34.2002 113.35 35.5302 111.3C37.6102 108.1 39.7802 104.58 39.3002 100.63C39.1602 99.4501 38.1102 99.1801 37.1102 98.7201C36.6402 98.5101 36.2502 98.1601 35.8002 97.9101C35.3902 97.6701 34.9302 97.5501 34.4902 97.3901C34.0702 97.2401 33.6902 97.0001 33.2802 96.8101C32.8902 96.6201 32.4802 96.5401 32.0702 96.3901C30.6502 95.8501 29.0702 95.1101 27.5402 95.1101C27.0102 95.1101 26.4002 95.0001 25.9302 95.2801C25.0202 95.8201 24.7902 97.3201 24.4702 98.2301C24.0302 99.4801 23.5702 100.73 23.0902 101.97Z" fill="#2F2F2F"/>
<path d="M125.48 69.3199C126.48 66.0899 126.15 62.3299 124.62 59.4899C123.77 57.9099 122.68 56.5899 121.35 55.5699C120.69 55.0599 120.01 54.7599 119.37 54.5299C119.93 53.2899 120.58 51.5199 120.59 49.5399C120.61 46.5099 119.45 43.4199 117.34 40.8499C115.85 39.0299 114.26 38.1499 112.48 37.2599C112.17 37.0999 111.83 36.9699 111.5 36.8299C111.5 36.8299 111.16 36.6899 111.17 36.6399C111.78 34.3699 112.09 32.5899 112.15 31.0499C112.29 27.6399 110.79 24.1199 107.92 21.1399C104.27 17.3399 98.9402 14.8899 94.3402 14.8899C93.5302 14.8899 92.8202 15.0399 92.1902 15.1699L91.6902 15.2699C91.5002 14.9799 91.2502 14.5499 91.0902 14.2499C90.7102 13.5599 90.3102 12.8399 89.7802 12.2999C88.2902 10.7399 86.4202 9.49988 84.0402 8.51988C80.2702 6.98988 75.8802 6.49988 71.8202 7.15988C69.8202 7.48988 68.0902 8.27988 66.5502 9.12988C63.9502 5.79988 59.6202 3.87988 54.4602 3.87988C51.6902 3.87988 48.9902 4.45988 46.6802 5.54988C46.3502 5.70988 44.5202 6.59988 43.0002 7.77988C40.8602 6.70988 38.9402 5.99988 36.5902 5.99988C35.3302 5.99988 34.0402 6.21988 32.6502 6.64988C29.8202 7.52988 27.1802 9.14988 25.3002 11.4599C24.4102 12.5499 23.7102 13.7899 23.2502 15.1199C22.8102 16.3999 22.8102 18.9499 21.6502 19.6999C20.2202 20.6299 18.5702 21.0899 17.1802 22.1499C16.7202 22.4999 16.2202 22.6299 15.7602 22.9499C15.3402 23.2499 14.9902 23.7299 14.5902 24.0799C14.0102 24.5899 13.4102 24.9499 12.9002 25.5699C11.8902 26.7899 10.9902 27.8599 10.3302 29.3299C9.15022 31.9499 8.81021 34.8199 8.40021 37.6199C8.29021 38.3199 8.51022 39.0799 8.42022 39.7799C8.33022 40.5199 8.22022 41.1699 8.22022 41.9399C8.22022 44.1599 8.10022 46.4199 8.88022 48.5299C9.65022 50.6399 8.02022 51.4899 7.23022 53.3299C6.82022 54.3099 6.58021 55.3499 6.35021 56.3699C6.04021 57.7299 5.97021 59.0199 5.97021 60.4499C5.97021 62.0199 6.75021 63.3299 6.95021 64.8399C7.15021 66.3899 7.83022 67.6499 8.72022 68.9499C8.95022 69.2799 9.26022 69.6399 9.59022 70.0099L9.92022 70.3699L9.88022 70.4499C7.58022 75.0099 7.88022 80.7999 10.6402 85.1999C12.0202 87.4099 13.9902 89.2599 16.4902 90.6499C16.5902 90.7099 16.6102 92.1799 16.6402 92.3799C16.7302 92.9599 16.8602 93.5399 17.0202 94.1099C17.6854 96.3539 18.9065 98.3937 20.5702 100.04C22.2202 101.7 25.0302 103.04 27.2302 103.73C29.1002 104.32 31.1502 104.3 32.9602 105.11C35.1502 106.08 37.0502 107.58 39.2202 108.6C40.3802 109.15 41.5902 109.6 42.8102 109.96C45.2902 110.7 47.8802 111.08 50.4702 111.08C53.1002 111.08 55.7502 110.72 58.2402 109.86C60.9402 108.94 63.7802 107.28 66.0202 105.52C66.2502 105.34 66.5202 105.08 66.7802 104.97C67.4202 104.69 68.6102 105.4 69.2502 105.59C70.2602 105.89 71.2902 106.09 72.3402 106.22C78.1302 106.93 84.4202 105.23 89.2502 102.01C90.0002 101.51 90.7202 100.69 91.6002 100.41C92.6202 100.09 93.6902 100.82 94.6702 100.99C97.7602 101.54 100.96 101.21 103.92 100.23C107.65 98.9999 109.75 95.9799 111.23 92.5399C111.51 91.8899 112.55 91.6699 113.12 91.3899C115.26 90.3399 117.57 89.5399 119 87.5199C120.23 85.7999 120.77 83.7299 121.1 81.6599C121.25 80.7199 121.37 79.7699 121.34 78.8199C121.31 77.8799 120.84 76.8899 120.84 75.9899C120.84 75.9899 120.76 75.7499 120.64 75.3999C122.92 74.1999 124.64 72.0499 125.48 69.3199Z" fill="#E0E0E0"/>
<path d="M42.3499 71.4499C42.6099 71.3999 42.8899 71.3699 43.1399 71.3099C43.8099 71.1499 44.4499 71.0099 45.0999 70.7699C46.3099 70.3399 48.0599 69.3599 47.8899 67.8399C47.7899 66.9099 47.1899 66.4499 46.2599 66.7199C45.9799 66.7999 45.6799 66.8999 45.3899 67.0099C44.5999 67.2999 43.9399 67.8299 43.1399 68.0899C41.5299 68.6099 39.7799 68.6999 38.3399 67.6999C37.2799 66.9499 36.3399 64.8999 34.7899 65.0599C33.4399 65.1799 33.7399 66.8499 34.1599 67.6899C34.8499 69.0399 36.1099 69.6799 37.1999 70.6199L37.7699 71.0399L37.9699 71.5899L37.9799 72.0599C37.9599 73.8799 37.1499 76.6599 39.5699 77.0499C39.8799 77.0999 40.2099 77.0599 40.5199 77.0599L41.5299 76.9399C41.3299 76.6999 41.1299 76.4299 41.0899 76.0999C40.9799 75.2999 40.8799 74.4499 40.8399 73.6399C40.8299 73.2299 40.6599 71.8999 41.1599 71.6699C41.5099 71.4799 41.9599 71.5299 42.3499 71.4499ZM33.5299 47.8199C31.3399 46.9499 28.7599 48.4299 27.7699 51.0899C26.7799 53.7699 27.7799 56.6299 29.9699 57.4999C32.1499 58.3299 34.7299 56.8899 35.6999 54.2099C36.6999 51.5499 35.7199 48.6699 33.5299 47.8199ZM59.5399 55.7499C59.4899 52.8999 57.5199 50.5899 55.1799 50.5999C52.8299 50.5999 50.9699 52.9199 51.0299 55.7499C51.0899 58.5999 53.0599 60.9099 55.4199 60.9099C57.7499 60.8899 59.6099 58.5899 59.5399 55.7499Z" fill="#E0E0E0"/>
<path d="M71.9899 44.8199C72.0399 44.1699 71.9899 43.5699 71.7899 43.0899C71.2799 41.8899 69.6299 43.0499 69.0199 43.5099C67.1499 44.9299 57.0199 48.8599 57.2599 42.9899C57.2999 42.0999 57.9999 41.3699 57.5199 40.3799C57.2299 39.7699 56.8499 39.6299 56.2099 39.7099C54.8499 39.8599 53.7599 41.0599 52.5299 41.5499C50.4399 42.3899 48.5599 43.1799 46.2299 42.7899C45.0199 42.5799 43.4099 41.9699 42.6199 40.9899C41.9899 40.2199 41.7599 37.2399 40.3799 37.1999C39.6099 37.1699 39.0299 37.8399 38.5999 38.3999C38.0799 39.0599 37.7699 39.3999 36.9799 39.8399C34.9699 40.9599 32.1999 41.7499 29.8899 41.5099C28.7099 41.3899 27.6099 41.0999 26.8499 40.1399C26.3099 39.4499 26.2699 36.7399 25.0499 36.8499C24.3199 36.9099 23.8199 37.6899 23.5099 38.6499C22.4899 41.7999 22.4499 45.5099 22.1499 48.7899C21.4599 56.2599 20.2999 64.3699 24.0599 71.2699C27.0299 76.7199 33.7899 79.4099 40.1399 80.1699C44.6399 80.7099 49.2499 80.3199 53.4999 78.6899C57.4399 77.1699 60.9199 74.6399 63.7399 71.5099C67.0799 67.8099 67.9299 62.1499 69.3099 57.5099C70.5099 53.4499 71.6799 49.0699 71.9899 44.8199ZM29.9699 57.4999C27.7799 56.6299 26.7899 53.7699 27.7699 51.0899C28.7599 48.4399 31.3399 46.9599 33.5299 47.8199C35.7199 48.6699 36.6999 51.5499 35.6999 54.2099C34.7299 56.8899 32.1499 58.3399 29.9699 57.4999ZM45.0999 70.7699C44.4499 71.0099 43.8099 71.1499 43.1399 71.3099C42.8899 71.3699 42.6099 71.4099 42.3499 71.4499C41.9699 71.5299 41.5099 71.4799 41.1499 71.6499C40.6599 71.8799 40.8199 73.2099 40.8299 73.6199C40.8699 74.4299 40.9699 75.2799 41.0799 76.0799C41.1199 76.4199 41.3299 76.6799 41.5199 76.9199L40.5099 77.0399C40.1999 77.0399 39.8699 77.0799 39.5599 77.0299C37.1399 76.6399 37.9499 73.8599 37.9699 72.0399L37.9599 71.5699L37.7599 71.0199L37.1899 70.5999C36.0899 69.6599 34.8299 69.0199 34.1499 67.6699C33.7299 66.8299 33.4299 65.1599 34.7799 65.0399C36.3399 64.8799 37.2699 66.9299 38.3299 67.6799C39.7799 68.6799 41.5199 68.5899 43.1299 68.0699C43.9299 67.8099 44.5899 67.2899 45.3799 66.9899C45.6699 66.8899 45.9799 66.7799 46.2499 66.6999C47.1699 66.4399 47.7699 66.8999 47.8799 67.8199C48.0599 69.3599 46.3099 70.3399 45.0999 70.7699ZM55.4099 60.9099C53.0499 60.9099 51.0799 58.5999 51.0199 55.7499C50.9599 52.9099 52.8199 50.5899 55.1699 50.5999C57.5199 50.5899 59.4899 52.8999 59.5299 55.7499C59.6099 58.5899 57.7499 60.8899 55.4099 60.9099Z" fill="#2F2F2F"/>
<path d="M21.0299 47.4499C20.5299 46.8999 20.5599 47.0099 20.0399 47.4199L19.4899 47.9599C19.0299 48.4599 18.4499 49.0699 17.6399 49.5199C17.0799 49.8199 16.2099 50.1899 15.2199 50.1899C14.1399 50.1899 13.2699 49.7199 12.6499 48.9999C12.1699 48.4299 11.8299 47.7099 11.7899 46.8499C11.7399 45.8699 12.0499 45.0899 12.3699 44.5099C11.8099 43.6999 11.3899 42.7999 11.0199 41.8599C10.6999 41.1199 10.4499 40.3499 10.2299 39.5599C9.93989 38.5599 9.71989 37.5399 9.54989 36.5399C9.31989 35.2699 9.25989 33.9599 9.36989 32.6699C9.26989 32.7499 9.15989 32.8299 9.05989 32.9099C6.11989 35.2499 3.92989 38.6499 2.85989 41.7499C1.57989 45.3999 0.94989 53.5699 5.89989 57.2999C6.55989 57.7999 7.30989 58.2199 8.18989 58.5399C8.23989 58.5599 8.28989 58.5599 8.32989 58.5799C9.16989 58.8699 10.0099 59.0599 10.8599 59.1799C11.3999 59.2499 11.9299 59.3299 12.4499 59.3299C17.6699 59.3299 21.3999 55.9199 21.9599 50.6399C22.0799 49.5399 21.6699 48.1799 21.0299 47.4499ZM95.4899 47.0899C94.6899 46.1099 93.7399 45.2299 92.6199 44.6599C91.6899 44.1699 90.7299 43.9499 89.7799 43.9499C88.1699 43.9499 86.5899 44.5799 85.2099 45.6099C83.7999 46.6599 82.9899 48.3299 82.8399 50.0699C82.6699 52.1499 84.7899 53.2999 85.2499 55.1199C85.7899 57.3099 83.7099 58.8799 81.5899 58.8799L80.9799 58.8299C78.3999 58.4399 77.3299 56.6699 77.2999 54.2499C77.2899 52.6299 77.2599 50.0099 75.0799 49.9299H74.8899C73.4899 49.9299 72.3999 50.5799 71.5499 51.5899C69.2099 54.3799 68.8899 59.9999 70.0699 62.6999C70.3599 63.3899 70.6799 64.1099 71.0399 64.7999C71.4099 65.5099 71.8499 66.1999 72.3999 66.7699C75.4299 69.8799 79.6399 71.4399 83.8699 71.4399C87.4899 71.4399 91.1299 70.2999 94.0299 68.0299C96.0999 66.4299 97.5899 64.1799 98.4099 61.6999C100.01 56.7999 98.7199 51.0199 95.4899 47.0899Z" fill="#78A3AD"/>
</svg>
