<svg width="128" height="128" viewBox="0 0 128 128" fill="none" xmlns="http://www.w3.org/2000/svg">
<path d="M120.05 69.1303C117.73 66.4303 115.83 63.2003 113.79 60.2503C111.43 56.8303 108.58 53.3603 108.12 49.0303C107.97 47.6403 108.29 46.3303 108.83 45.0903C109.83 42.8703 111.58 40.8503 112.84 38.8703C117.98 30.6503 122.15 21.4903 122.43 11.6503C122.52 8.87029 121.84 4.69029 119.42 2.84029C116.81 0.85029 113.04 1.21029 110.02 1.79029C102.67 3.21029 96.0001 6.81029 89.2601 9.89029C86.6601 11.0803 84.1001 12.3503 81.5601 13.6403C76.0901 11.8903 70.1901 10.9903 64.3501 10.9403C58.5001 10.9903 52.6301 11.9003 47.1401 13.6403C44.6001 12.3503 42.0401 11.0803 39.4401 9.89029C32.7201 6.80029 26.0501 3.20029 18.7101 1.78029C15.7001 1.20029 11.9101 0.83029 9.30015 2.83029C6.88015 4.68029 6.22015 8.87029 6.28015 11.6403C6.50015 19.1203 8.98015 26.2903 12.4101 32.8603C14.1801 36.2203 16.1801 39.4703 18.3201 42.6103C19.6901 44.6203 19.8501 44.8603 19.2401 47.0103C18.8401 48.4203 18.5301 50.2603 17.9901 51.6503C17.2001 53.7203 15.7801 55.9703 14.4901 57.8003C12.1801 61.0303 9.73015 63.8503 7.10015 66.7403C5.66015 68.3103 -0.0398517 72.8503 0.530148 74.9203C1.19015 77.3003 8.46015 77.7903 10.3701 77.8803C11.1101 79.8703 7.97015 82.5003 6.96015 84.0503C5.61015 86.1303 4.21015 87.8603 4.74015 90.4703C8.00015 90.8603 10.5301 89.4503 13.5401 88.4403C15.0201 91.3703 11.0101 95.9303 12.6101 99.5503C14.4901 103.74 17.8101 100.04 20.3201 98.5503C23.7701 96.5203 25.6101 95.8003 29.6201 95.7703C31.6801 95.7603 35.7102 95.9603 36.3801 98.1503C38.8801 106.3 40.4002 111.38 44.2001 117.27C48.8401 124.48 55.9401 126.66 65.3201 126.66C72.8201 126.66 79.5801 124.25 84.3201 117.61C85.9201 115.36 89.9701 103.52 90.7901 100.62C93.0001 92.8403 100.31 94.9203 105.7 97.9603C108.02 99.2703 109.84 99.9703 111.05 97.0803C112.29 94.0303 108.88 91.0303 109.83 88.3203C112.88 87.5403 115.62 92.4303 119.07 90.4603C121.95 88.8103 119.43 85.3203 118.28 83.5703C116.71 81.1703 115.7 78.4303 119.6 79.3903C121.51 79.8603 124.85 83.0103 126.6 81.3003C130.22 77.7703 121.97 71.3703 120.05 69.1303Z" fill="#78A3AD"/>
<mask id="mask0_4614_15740" style="mask-type:luminance" maskUnits="userSpaceOnUse" x="0" y="1" width="128" height="126">
<path d="M120.05 69.1303C117.73 66.4303 115.83 63.2003 113.79 60.2503C111.43 56.8303 108.58 53.3603 108.12 49.0303C107.97 47.6403 108.29 46.3303 108.83 45.0903C109.83 42.8703 111.58 40.8503 112.84 38.8703C117.98 30.6503 122.15 21.4903 122.43 11.6503C122.52 8.87029 121.84 4.69029 119.42 2.84029C116.81 0.85029 113.04 1.21029 110.02 1.79029C102.67 3.21029 96.0001 6.81029 89.2601 9.89029C86.6601 11.0803 84.1001 12.3503 81.5601 13.6403C76.0901 11.8903 70.1901 10.9903 64.3501 10.9403C58.5001 10.9903 52.6301 11.9003 47.1401 13.6403C44.6001 12.3503 42.0401 11.0803 39.4401 9.89029C32.7201 6.80029 26.0501 3.20029 18.7101 1.78029C15.7001 1.20029 11.9101 0.83029 9.30015 2.83029C6.88015 4.68029 6.22015 8.87029 6.28015 11.6403C6.50015 19.1203 8.98015 26.2903 12.4101 32.8603C14.1801 36.2203 16.1801 39.4703 18.3201 42.6103C19.6901 44.6203 19.8501 44.8603 19.2401 47.0103C18.8401 48.4203 18.5301 50.2603 17.9901 51.6503C17.2001 53.7203 15.7801 55.9703 14.4901 57.8003C12.1801 61.0303 9.73015 63.8503 7.10015 66.7403C5.66015 68.3103 -0.0398517 72.8503 0.530148 74.9203C1.19015 77.3003 8.46015 77.7903 10.3701 77.8803C11.1101 79.8703 7.97015 82.5003 6.96015 84.0503C5.61015 86.1303 4.21015 87.8603 4.74015 90.4703C8.00015 90.8603 10.5301 89.4503 13.5401 88.4403C15.0201 91.3703 11.0101 95.9303 12.6101 99.5503C14.4901 103.74 17.8101 100.04 20.3201 98.5503C23.7701 96.5203 25.6101 95.8003 29.6201 95.7703C31.6801 95.7603 35.7102 95.9603 36.3801 98.1503C38.8801 106.3 40.4002 111.38 44.2001 117.27C48.8401 124.48 55.9401 126.66 65.3201 126.66C72.8201 126.66 79.5801 124.25 84.3201 117.61C85.9201 115.36 89.9701 103.52 90.7901 100.62C93.0001 92.8403 100.31 94.9203 105.7 97.9603C108.02 99.2703 109.84 99.9703 111.05 97.0803C112.29 94.0303 108.88 91.0303 109.83 88.3203C112.88 87.5403 115.62 92.4303 119.07 90.4603C121.95 88.8103 119.43 85.3203 118.28 83.5703C116.71 81.1703 115.7 78.4303 119.6 79.3903C121.51 79.8603 124.85 83.0103 126.6 81.3003C130.22 77.7703 121.97 71.3703 120.05 69.1303Z" fill="white"/>
</mask>
<g mask="url(#mask0_4614_15740)">
<path d="M99.9202 88.9706C100.21 88.3606 99.8502 87.5306 99.0502 86.9606C97.8402 86.1006 96.4302 85.5906 95.0802 85.0506C93.1202 84.2706 91.0202 83.8106 88.9202 83.8106C83.3002 83.8106 77.7602 87.1106 75.0902 92.0706C74.2402 93.6506 73.3802 95.6906 73.1302 97.4806C73.0602 97.9206 72.9502 98.3606 72.8902 98.8106C72.8402 99.2406 72.8002 99.6706 72.7502 100.101C72.6502 100.881 72.5002 101.611 72.2902 102.371C72.1202 103.011 71.9602 103.581 71.4702 104.061C70.9002 104.631 70.0302 105.211 69.2302 105.311C68.8002 105.361 68.3502 105.331 67.9102 105.351C67.2702 105.391 66.6202 105.331 65.9702 105.331C63.8302 105.331 61.7002 105.691 59.6402 104.931C59.4102 104.851 59.1602 104.761 58.9502 104.601C58.7602 104.451 58.6202 104.271 58.4302 104.081C57.5402 103.161 57.2702 101.711 57.0902 100.471C56.5202 96.5806 55.3202 92.6006 52.7102 89.5806C49.8802 86.3106 45.7602 84.0706 41.4302 83.7406C39.1002 83.5606 36.0702 83.7106 33.8602 84.5406C32.0402 85.2306 28.7102 86.3306 28.0202 88.4006C27.2502 90.7806 31.9002 89.4106 32.8102 90.6906C33.6502 91.8906 33.2202 94.4406 33.2302 95.9006C33.2402 98.2906 32.4902 100.601 31.9702 102.931C31.6002 104.561 31.5802 106.291 31.3902 107.941C31.1402 110.261 31.1402 112.771 31.1402 115.101C31.1402 117.081 31.2702 119.081 32.0202 120.941C32.5602 122.261 33.4402 123.431 34.0602 124.731C34.4802 125.611 34.9902 126.331 35.7302 126.991C36.9902 128.111 39.0102 128.081 40.4702 128.861C44.5902 131.051 49.2302 131.941 53.8602 132.361C57.5302 132.691 61.2402 132.821 64.9302 132.821C66.8902 132.821 68.8402 132.901 70.7802 132.671C72.6802 132.441 74.5402 132.011 76.4402 131.731C79.5102 131.291 81.8302 130.681 84.3202 128.811C87.5802 126.351 90.1702 122.921 91.5602 119.011C92.8702 115.321 93.3502 111.271 92.8202 107.331C92.3802 104.071 91.2102 101.141 91.4002 97.7706C91.4702 96.4806 91.7502 95.2806 91.9602 94.0206C92.1702 92.8606 92.7402 91.8206 93.6002 91.0006C94.1402 90.4906 95.1602 90.0806 95.8402 89.9106C96.8302 89.6606 97.9102 89.9506 98.9102 89.6806C99.4402 89.5406 99.7602 89.2806 99.9202 88.9706Z" fill="white"/>
</g>
<mask id="mask1_4614_15740" style="mask-type:luminance" maskUnits="userSpaceOnUse" x="0" y="1" width="128" height="126">
<path d="M120.05 69.1303C117.73 66.4303 115.83 63.2003 113.79 60.2503C111.43 56.8303 108.58 53.3603 108.12 49.0303C107.97 47.6403 108.29 46.3303 108.83 45.0903C109.83 42.8703 111.58 40.8503 112.84 38.8703C117.98 30.6503 122.15 21.4903 122.43 11.6503C122.52 8.87029 121.84 4.69029 119.42 2.84029C116.81 0.85029 113.04 1.21029 110.02 1.79029C102.67 3.21029 96.0001 6.81029 89.2601 9.89029C86.6601 11.0803 84.1001 12.3503 81.5601 13.6403C76.0901 11.8903 70.1901 10.9903 64.3501 10.9403C58.5001 10.9903 52.6301 11.9003 47.1401 13.6403C44.6001 12.3503 42.0401 11.0803 39.4401 9.89029C32.7201 6.80029 26.0501 3.20029 18.7101 1.78029C15.7001 1.20029 11.9101 0.83029 9.30015 2.83029C6.88015 4.68029 6.22015 8.87029 6.28015 11.6403C6.50015 19.1203 8.98015 26.2903 12.4101 32.8603C14.1801 36.2203 16.1801 39.4703 18.3201 42.6103C19.6901 44.6203 19.8501 44.8603 19.2401 47.0103C18.8401 48.4203 18.5301 50.2603 17.9901 51.6503C17.2001 53.7203 15.7801 55.9703 14.4901 57.8003C12.1801 61.0303 9.73015 63.8503 7.10015 66.7403C5.66015 68.3103 -0.0398517 72.8503 0.530148 74.9203C1.19015 77.3003 8.46015 77.7903 10.3701 77.8803C11.1101 79.8703 7.97015 82.5003 6.96015 84.0503C5.61015 86.1303 4.21015 87.8603 4.74015 90.4703C8.00015 90.8603 10.5301 89.4503 13.5401 88.4403C15.0201 91.3703 11.0101 95.9303 12.6101 99.5503C14.4901 103.74 17.8101 100.04 20.3201 98.5503C23.7701 96.5203 25.6101 95.8003 29.6201 95.7703C31.6801 95.7603 35.7102 95.9603 36.3801 98.1503C38.8801 106.3 40.4002 111.38 44.2001 117.27C48.8401 124.48 55.9401 126.66 65.3201 126.66C72.8201 126.66 79.5801 124.25 84.3201 117.61C85.9201 115.36 89.9701 103.52 90.7901 100.62C93.0001 92.8403 100.31 94.9203 105.7 97.9603C108.02 99.2703 109.84 99.9703 111.05 97.0803C112.29 94.0303 108.88 91.0303 109.83 88.3203C112.88 87.5403 115.62 92.4303 119.07 90.4603C121.95 88.8103 119.43 85.3203 118.28 83.5703C116.71 81.1703 115.7 78.4303 119.6 79.3903C121.51 79.8603 124.85 83.0103 126.6 81.3003C130.22 77.7703 121.97 71.3703 120.05 69.1303Z" fill="white"/>
</mask>
<g mask="url(#mask1_4614_15740)">
<path d="M65.3001 132.431C57.4801 132.431 46.2801 131.181 39.3401 120.401C35.4201 114.311 33.7001 109.101 31.4001 101.621C30.9901 101.571 30.4501 101.541 29.7401 101.541C26.9701 101.561 26.1301 101.821 23.2301 103.521C22.8801 103.731 22.5201 104.001 22.1201 104.281C20.3701 105.531 17.9801 107.251 14.9101 107.251C13.3501 107.251 9.49008 106.731 7.33008 101.911C6.46008 99.9506 6.34008 98.0206 6.52008 96.2806C5.72008 96.3206 4.89008 96.2906 4.04008 96.1906C2.8352 96.0499 1.70598 95.5307 0.814752 94.7078C-0.0764761 93.8848 -0.683804 92.8005 -0.919919 91.6106C-1.76992 87.4206 -0.119919 84.3706 1.26008 82.2206C-2.22992 81.0406 -4.26992 79.1406 -5.01992 76.4406C-6.37992 71.4806 -2.12992 67.5106 1.63008 64.0106C2.14008 63.5306 2.59008 63.1306 2.85008 62.8406C5.11008 60.3606 7.53008 57.6206 9.80008 54.4306C11.1301 52.5706 12.1401 50.8406 12.6301 49.5606C12.8801 48.9006 13.0501 48.0906 13.2301 47.3206C13.3501 46.8206 13.4601 46.3206 13.5901 45.8606C13.5801 45.8506 13.5801 45.8406 13.5601 45.8306C11.1901 42.3806 9.09008 38.9106 7.31008 35.5206C3.03008 27.3406 0.740081 19.3606 0.520081 11.8006C0.490081 9.60059 0.700081 2.16059 5.82008 -1.74941C9.20008 -4.34941 13.4201 -5.10941 19.8101 -3.87941C26.5401 -2.56941 32.5301 0.260593 38.3201 3.00059L41.8701 4.66059C43.8401 5.56059 45.7901 6.51059 47.7201 7.48059C53.0501 6.00059 58.6301 5.23059 64.3201 5.18059C70.0201 5.23059 75.7101 6.02059 81.0301 7.47059C82.9601 6.50059 84.9101 5.55059 86.8801 4.65059L90.4401 2.99059C96.2201 0.260593 102.2 -2.56941 108.94 -3.86941C115.31 -5.09941 119.53 -4.34941 122.93 -1.73941C128.08 2.20059 128.26 9.64059 128.19 11.8206C127.93 21.3506 124.6 30.9206 117.72 41.9106C117.22 42.7106 116.66 43.4906 116.1 44.2806C115.27 45.4306 114.5 46.5206 114.07 47.4606C113.91 47.8306 113.82 48.1906 113.85 48.4006C114.08 50.6806 115.76 53.0506 117.53 55.5506L118.54 56.9806C119.16 57.8806 119.76 58.8006 120.37 59.7306C121.73 61.8006 123.02 63.7506 124.42 65.3706C124.71 65.7106 125.17 66.1406 125.69 66.6506C128.89 69.7606 133.26 74.0106 133.27 79.2006C133.27 81.5506 132.33 83.7706 130.62 85.4406C129.399 86.6331 127.808 87.3739 126.11 87.5406C126.19 88.4106 126.14 89.3106 125.92 90.2406C125.39 92.4406 123.97 94.3006 121.9 95.4706C120.412 96.325 118.715 96.7475 117 96.6906C116.91 97.5206 116.71 98.3806 116.35 99.2706C114.27 104.321 110.32 104.861 108.71 104.861C106.48 104.861 104.57 103.961 102.84 102.981C100.64 101.751 98.5501 101.001 97.2601 101.001C96.8401 101.031 96.5701 101.291 96.3101 102.211C95.9701 103.391 91.5201 117.391 88.9901 120.961C83.5701 128.581 75.6001 132.431 65.3001 132.431ZM29.5701 90.0306C38.1301 90.0306 40.9801 93.5406 41.8701 96.4806C44.3101 104.421 45.7201 109.021 49.0301 114.171C52.1201 118.961 56.8301 120.921 65.3101 120.921C71.8501 120.921 76.4001 118.811 79.6201 114.291C80.6901 112.561 84.3401 102.271 85.2401 99.0706C87.5901 90.8206 94.8801 87.4306 104.01 90.8406C103.81 89.5106 103.83 88.0106 104.39 86.4306C104.703 85.535 105.233 84.731 105.933 84.0905C106.633 83.45 107.48 82.9931 108.4 82.7606C109.4 82.5006 110.47 82.4306 111.45 82.5506C110.98 80.8506 110.92 78.9106 111.94 77.0106C112.87 75.2906 114.48 74.1106 116.42 73.6606C116.14 73.3706 115.89 73.1006 115.7 72.8706C113.83 70.7006 112.27 68.3406 110.77 66.0606C110.21 65.2006 109.65 64.3506 109.07 63.5206L108.15 62.2106C105.84 58.9506 102.96 54.8806 102.42 49.6306C102.17 47.3906 102.55 45.1406 103.58 42.7906C104.5 40.7506 105.69 39.0806 106.75 37.6106C107.18 37.0006 107.62 36.4006 108 35.8006C113.72 26.6406 116.49 18.9106 116.7 11.4906C116.76 9.42059 116.2 7.72059 115.87 7.34059C115.87 7.34059 114.24 6.84059 111.14 7.44059C105.83 8.47059 100.75 10.8706 95.3701 13.4106L91.6901 15.1306C89.1601 16.2906 86.6801 17.5306 84.2101 18.7806C82.8601 19.4706 81.2901 19.5906 79.8501 19.1306C74.9901 17.5806 69.6301 16.7406 64.3301 16.7006C59.1401 16.7406 53.7801 17.5806 48.9201 19.1306C47.4801 19.5806 45.9101 19.4606 44.5601 18.7806C42.1001 17.5306 39.6001 16.2906 37.0801 15.1306L33.4201 13.4206C28.0401 10.8806 22.9501 8.48059 17.6401 7.45059C14.9301 6.93059 13.2101 7.13059 12.8401 7.41059C12.5601 7.71059 12.0001 9.42059 12.0501 11.5006C12.2301 17.3506 14.0201 23.4806 17.5301 30.1906C19.0901 33.1706 20.9701 36.2506 23.0901 39.3506C25.2401 42.5206 25.9501 44.4906 24.7901 48.5706C24.6701 48.9906 24.5701 49.4706 24.4601 49.9606C24.1501 51.2506 23.8101 52.6006 23.3801 53.7206C22.5201 55.9406 21.1201 58.4306 19.1901 61.1406C16.5401 64.8406 13.7401 68.0106 11.3501 70.6206C11.0201 70.9906 10.4901 71.4906 9.86008 72.0806C10.1101 72.0906 10.3701 72.1106 10.6201 72.1206C11.7516 72.1725 12.8427 72.5569 13.757 73.2256C14.6712 73.8944 15.368 74.8179 15.7601 75.8806C16.7401 78.5506 16.0801 80.9406 15.0101 82.8806C16.5501 83.2906 17.9001 84.3406 18.6601 85.8506C19.8401 88.1906 19.7601 90.4906 19.3301 92.5006C22.4801 90.8606 25.1801 90.0606 29.5701 90.0306Z" fill="#78A3AD"/>
</g>
<path d="M47.9202 65.8697C45.4402 68.1897 41.2002 67.7197 38.4602 64.7797C35.7302 61.8597 35.5002 57.5997 37.9702 55.2897C40.4402 52.9697 44.6902 53.4697 47.4302 56.3897C50.1702 59.2997 50.3902 63.5497 47.9202 65.8697ZM77.9302 112.42C77.6902 113.04 76.8002 113.46 76.2602 113.8C73.6902 115.44 69.0502 115.04 66.3802 113.82C65.6602 113.49 65.2102 113.19 64.3702 113.28C63.6802 113.34 62.8602 113.82 62.2002 114.03C59.8902 114.78 57.9002 115.31 55.4702 114.99C54.7302 114.89 54.0102 114.75 53.3202 114.49C52.5602 114.19 51.6202 113.62 51.1702 112.98C50.7502 112.41 50.6602 111.43 51.4102 111.08C51.9502 110.81 52.5102 110.89 53.0502 111.08C53.7002 111.3 54.2102 111.77 54.8702 111.99C56.5402 112.57 58.8902 112.44 60.5302 111.77C61.1602 111.51 61.9402 111.36 62.3602 110.79C62.9802 109.95 63.1002 108.92 63.1002 107.91C61.4602 107.91 59.8902 107.69 58.3602 107.14C54.3802 105.72 53.2702 102.11 54.8602 98.7697C55.1002 98.2697 55.3902 97.7997 55.7002 97.3797C57.4102 95.1897 60.1902 94.1997 63.3902 94.0597C67.0902 93.8897 71.9402 95.2197 73.8702 98.3897C75.1302 100.46 74.5502 103.63 72.9502 105.43C71.3302 107.24 68.3302 107.63 65.7202 107.81C65.7502 108.66 65.8602 109.51 66.2602 110.2C66.5602 110.73 67.2602 111.07 67.7202 111.44C68.1402 111.76 68.5402 111.92 69.0402 112.02C70.3702 112.28 71.7802 112.4 73.1302 112.24C74.4802 112.07 75.3902 111.41 76.6202 110.94C77.6902 110.52 78.2802 111.55 77.9302 112.42ZM89.3202 64.7797C86.5602 67.7197 82.3302 68.1897 79.8502 65.8697C77.3902 63.5597 77.5902 59.3097 80.3402 56.3897C83.0802 53.4697 87.3302 52.9697 89.7902 55.2897C92.2802 57.5897 92.0602 61.8497 89.3202 64.7797Z" fill="#2F2F2F"/>
<path d="M34.4702 53.5704L52.3102 61.7004L56.6902 48.2504L44.4902 41.3604L34.4702 53.5704ZM92.3002 53.5704L74.4702 61.7004L70.0902 48.2504L82.2902 41.3604L92.3002 53.5704Z" fill="#78A3AD"/>
<path d="M35.86 24.5104C32.58 26.9204 30.21 30.3504 28.6 34.0604C28.43 34.4604 28.27 34.9804 27.9 35.2404L27.79 35.3004C25.15 36.6004 19.22 22.6104 18.46 20.6804C17.68 18.7304 16.28 16.2504 18.05 14.3504C19.62 12.6604 22.12 13.5504 24 14.1204C28.09 15.3504 31.85 16.9604 35.7 18.7504C36.38 19.0704 40.05 20.6304 39.99 21.5104C39.91 22.4804 36.64 23.9404 35.86 24.5104ZM100.96 35.3004L100.85 35.2404C100.48 34.9804 100.32 34.4604 100.15 34.0604C98.54 30.3404 96.17 26.9204 92.88 24.5104C92.1 23.9404 88.84 22.4804 88.78 21.5004C88.71 20.6204 92.38 19.0604 93.05 18.7404C96.9 16.9504 100.67 15.3404 104.76 14.1104C106.63 13.5504 109.13 12.6604 110.7 14.3404C112.47 16.2404 111.07 18.7204 110.3 20.6704C109.53 22.6104 103.61 36.6004 100.96 35.3004Z" fill="white"/>
</svg>
