<svg width="174" height="174" viewBox="0 0 174 174" fill="none" xmlns="http://www.w3.org/2000/svg">
<path d="M123.368 16.9215C86.7354 -0.515 53.5084 15.2024 53.5084 15.2024C111.804 7.3498 132.24 40.89 132.24 40.89C128.499 37.8729 122.219 35.931 117.365 34.7966C127.157 46.3223 128.168 59.9674 122.508 67.4668C122.049 66.1983 121.513 65.0186 120.935 63.905L121.847 60.7643L116.037 56.55L120.387 55.68C113.535 51.765 111.487 51.0203 109.077 49.6979C110.817 48.285 112.658 47.3733 113.535 44.37C108.117 46.0787 104.837 46.0161 104.837 46.0161L108.423 39.585L100.273 41.0345C104.409 35.7814 99.6306 30.885 99.6306 30.885C96.5595 38.2783 94.3793 38.0904 91.7832 39.4772C91.7832 39.4772 84.9189 40.328 81.947 44.4849C78.975 48.6417 75.5525 47.4429 75.5525 47.4429L69.6452 50.6132L67.1535 46.6738C64.4791 50.8324 67.1535 58.7111 67.1535 58.7111C68.5977 55.4277 71.8654 54.7718 71.8654 54.7718L77.195 54.5525L78.6183 56.303L80.3061 54.114L85.9316 54.77C85.9316 54.77 76.3302 61.5543 74.4858 60.8983C72.6414 60.2423 69.6434 63.0872 69.6434 63.0872L74.4858 67.2458C79.5788 59.5846 89.7021 60.4616 89.7021 60.4616L92.7367 55.8662C97.3407 53.8565 104.155 62.0815 101.468 70.8267C99.728 76.4922 94.3601 80.1653 88.4963 80.5342C59.2278 82.3682 54.4793 62.9967 54.4793 62.9967L51.7614 75.0375C44.6692 39.4511 69.8505 24.36 69.8505 24.36C43.3155 31.9725 34.3649 54.3663 34.3649 54.3663L31.2608 47.415C16.5299 79.605 37.6274 103.53 37.6274 103.53C31.9916 102.655 27.17 101.736 27.17 101.736C49.3724 139.853 93.0221 127.673 93.0221 127.673C83.3564 123.422 78.6201 109.488 78.6201 109.488V116.055C78.6201 116.055 69.8505 112.448 71.8689 102.704C73.8925 92.93 84.8388 93.271 88.907 95.4808C93.5876 98.0247 96.8396 104.017 96.8396 115.399C96.8396 115.687 96.817 115.954 96.81 116.236L101.626 108.315C103.69 130.961 86.4135 136.559 77.67 137.961C59.0051 140.956 54.5907 130.935 54.5907 130.935C54.0809 134.424 53.9486 133.648 54.2375 139.005C18.7867 126.173 16.9649 85.26 16.9649 85.26L15.4424 92.4375C10.3721 60.385 22.2284 41.0832 28.4246 33.4759C31.2468 30.0116 30.2342 31.0364 36.1763 25.1587L32.6615 30.8172L34.9774 34.1301L42.047 18.8703L26.2652 25.7016L29.9401 28.6387C12.7959 47.5595 7.80903 72.4937 9.13491 91.8581C10.5843 113.029 21.9674 128.978 21.9674 128.978H15.4424C27.8399 147.03 43.4999 150.728 51.7649 151.598C47.4254 152.856 47.4254 152.856 39.4179 153.438C64.3799 160.95 83.3546 157.703 91.4996 153.773L87.421 159.828C110.934 153.983 115.324 133.931 115.324 133.931L115.786 140.787C128.36 130.062 126.409 115.179 126.409 115.179L130.061 119.409C131.21 106.751 131.368 103.095 131.368 103.095C141.373 122.018 130.592 140.764 127.709 145.165C129.661 139.254 128.795 130.5 128.795 130.5C121.582 159.863 80.3096 165.3 80.3096 165.3C86.9651 165.3 146.16 160.298 154.207 117.668C154.207 117.668 153.317 130.822 153.337 136.808C177.48 84.39 163.859 36.1955 123.368 16.9215ZM86.1926 47.415L83.8383 45.8925L89.1749 44.37L86.1926 47.415Z" fill="url(#paint0_linear_4537_17744)"/>
<defs>
<linearGradient id="paint0_linear_4537_17744" x1="8.92994" y1="165.299" x2="165.531" y2="8.93438" gradientUnits="userSpaceOnUse">
<stop stop-color="#9E7A38"/>
<stop offset="1" stop-color="#D9AB56"/>
</linearGradient>
</defs>
</svg>
